<svg width="542" height="315" viewBox="0 0 542 315" fill="none" xmlns="http://www.w3.org/2000/svg">
<mask id="path-1-outside-1_1229_1119" maskUnits="userSpaceOnUse" x="0.279297" y="0.815918" width="542" height="315" fill="black">
<rect fill="white" x="0.279297" y="0.815918" width="542" height="315"/>
<path d="M7.4313 96.9999C6.6633 96.9999 6.2793 96.7439 6.2793 95.4639V94.8239C6.2793 93.6719 6.7913 93.2879 7.8153 93.0319C11.9113 92.2639 14.8553 89.8319 14.8553 86.6319V14.1839C14.8553 10.9839 11.9113 8.55192 7.8153 7.78392C6.7913 7.52792 6.2793 7.14392 6.2793 5.99192V5.35192C6.2793 4.07192 6.6633 3.81592 7.4313 3.81592C12.6793 3.81592 16.5193 4.45592 21.1273 4.45592C25.7353 4.45592 29.8313 3.81592 35.0793 3.81592C35.8473 3.81592 36.2313 4.07192 36.2313 5.35192V5.99192C36.2313 7.14392 35.8473 7.52792 35.2073 7.65592C30.8553 8.29592 27.6553 10.8559 27.6553 14.1839V46.4399H59.0153V14.1839C59.0153 10.9839 56.0713 8.55192 51.9753 7.78392C50.9513 7.52792 50.4393 7.14392 50.4393 5.99192V5.35192C50.4393 4.07192 50.8233 3.81592 51.5913 3.81592C56.8393 3.81592 60.6793 4.45592 65.2873 4.45592C69.8953 4.45592 73.9913 3.81592 79.2393 3.81592C80.0073 3.81592 80.3913 4.07192 80.3913 5.35192V5.99192C80.3913 7.14392 80.0073 7.52792 79.3673 7.65592C75.0153 8.29592 71.8153 10.8559 71.8153 14.1839V86.6319C71.8153 89.9599 75.0153 92.5199 79.3673 93.1599C80.0073 93.2879 80.3913 93.6719 80.3913 94.8239V95.4639C80.3913 96.7439 80.0073 96.9999 79.2393 96.9999C73.9913 96.9999 69.8953 96.3599 65.2873 96.3599C60.6793 96.3599 56.8393 96.9999 51.5913 96.9999C50.8233 96.9999 50.4393 96.7439 50.4393 95.4639V94.8239C50.4393 93.6719 50.9513 93.2879 51.9753 93.0319C56.0713 92.2639 59.0153 89.8319 59.0153 86.6319V51.5599H27.6553V86.6319C27.6553 89.9599 30.8553 92.5199 35.2073 93.1599C35.8473 93.2879 36.2313 93.6719 36.2313 94.8239V95.4639C36.2313 96.7439 35.8473 96.9999 35.0793 96.9999C29.8313 96.9999 25.7353 96.3599 21.1273 96.3599C16.5193 96.3599 12.6793 96.9999 7.4313 96.9999Z"/>
<path d="M107.992 98.9199C95.7043 98.9199 90.2003 90.3439 90.2003 77.7999V43.3679C90.2003 40.0399 87.0003 37.4799 83.9283 36.8399C83.2883 36.7119 82.9043 36.3279 82.9043 35.1759V34.5359C82.9043 33.2559 83.2883 32.9999 84.0563 32.9999C86.8723 32.9999 89.6883 33.6399 93.9123 33.6399C95.8323 33.6399 97.8803 33.3839 100.44 33.3839C103.512 33.3839 101.72 36.0719 101.72 45.9279V73.4479C101.72 85.8639 105.944 90.7279 112.728 90.7279C117.336 90.7279 122.456 88.0399 124.76 82.1519V43.3679C124.76 40.0399 121.56 37.4799 118.488 36.8399C117.848 36.7119 117.464 36.3279 117.464 35.1759V34.5359C117.464 33.2559 117.848 32.9999 118.616 32.9999C121.432 32.9999 124.248 33.6399 128.472 33.6399C130.392 33.6399 132.44 33.3839 135 33.3839C138.072 33.3839 136.28 36.0719 136.28 45.9279V80.2319C136.28 85.4799 137.944 87.7839 142.296 88.9359C142.936 89.0639 143.192 89.5759 143.192 90.2159V91.2399C143.192 91.8799 142.808 92.3919 142.168 92.5199C137.816 93.0319 131.288 95.3359 128.6 97.8959C127.96 98.4079 127.448 98.5359 126.424 98.1519C125.528 97.7679 125.272 97.2559 125.272 96.6159V88.8079C120.92 95.8479 114.648 98.9199 107.992 98.9199Z"/>
<path d="M217.73 52.8399C217.73 43.4959 214.274 39.9119 208.642 39.9119C204.034 39.9119 198.914 42.5999 196.61 48.6159V86.6319C196.61 89.9599 199.81 92.5199 202.882 93.1599C203.522 93.2879 203.906 93.6719 203.906 94.8239V95.4639C203.906 96.7439 203.522 96.9999 202.754 96.9999C198.786 96.9999 194.69 96.3599 190.722 96.3599C186.754 96.3599 182.914 96.9999 178.946 96.9999C178.178 96.9999 177.794 96.7439 177.794 95.4639V94.8239C177.794 93.6719 178.306 93.2879 179.33 93.0319C182.146 92.2639 185.09 89.8319 185.09 86.6319V52.8399C185.09 43.4959 181.634 39.9119 176.002 39.9119C171.394 39.9119 166.274 42.5999 163.97 48.4879V86.6319C163.97 89.9599 167.17 92.5199 170.242 93.1599C170.882 93.2879 171.266 93.6719 171.266 94.8239V95.4639C171.266 96.7439 170.882 96.9999 170.114 96.9999C166.146 96.9999 162.05 96.3599 158.082 96.3599C154.114 96.3599 150.274 96.9999 146.306 96.9999C145.538 96.9999 145.154 96.7439 145.154 95.4639V94.8239C145.154 93.6719 145.666 93.2879 146.69 93.0319C149.506 92.2639 152.45 89.8319 152.45 86.6319V49.6399C152.45 46.4399 150.786 44.1359 146.434 42.9839C145.794 42.8559 145.538 42.3439 145.538 41.7039V40.6799C145.538 40.0399 145.922 39.5279 146.562 39.3999C152.194 38.2479 157.698 34.5359 160.386 31.8479C160.898 31.3359 161.538 31.4639 162.306 31.7199C163.202 32.1039 163.458 32.6159 163.458 33.2559V42.5999C167.81 35.0479 173.826 31.7199 180.738 31.7199C188.418 31.7199 193.666 36.0719 195.714 43.2399C200.066 35.3039 206.338 31.7199 213.378 31.7199C223.362 31.7199 229.25 39.0159 229.25 50.5359V86.6319C229.25 89.9599 232.45 92.5199 235.522 93.1599C236.162 93.2879 236.546 93.6719 236.546 94.8239V95.4639C236.546 96.7439 236.162 96.9999 235.394 96.9999C231.426 96.9999 227.33 96.3599 223.362 96.3599C219.394 96.3599 215.554 96.9999 211.586 96.9999C210.818 96.9999 210.434 96.7439 210.434 95.4639V94.8239C210.434 93.6719 210.946 93.2879 211.97 93.0319C214.786 92.2639 217.73 89.8319 217.73 86.6319V52.8399Z"/>
<path d="M279.522 98.2799C274.658 98.2799 271.074 95.9759 269.538 88.5519C264.034 95.2079 257.25 98.9199 249.826 98.9199C242.914 98.9199 238.434 93.9279 238.434 85.7359C238.434 77.1599 245.346 69.6079 268.642 60.6479L268.77 52.0719C269.154 38.6319 267.106 36.0719 261.218 36.0719C256.61 36.0719 254.562 38.2479 252.77 44.9039C250.85 51.9439 248.162 53.6079 245.602 53.6079C243.17 53.6079 240.866 51.0479 240.866 47.4639C240.866 39.1439 252.002 31.7199 262.626 31.7199C275.426 31.7199 280.674 36.1999 280.29 50.2799C280.162 57.0639 280.034 65.8959 280.034 74.8559C280.162 88.4239 281.058 90.3439 283.362 90.3439C284.386 90.3439 285.282 89.9599 286.05 88.9359C286.434 88.4239 287.202 88.0399 288.226 88.6799L288.61 88.9359C289.634 89.5759 289.506 90.2159 289.122 91.3679C287.458 96.2319 284.642 98.2799 279.522 98.2799ZM250.722 83.4319C250.722 88.6799 253.026 91.1119 256.482 91.1119C259.298 91.1119 264.674 88.6799 268.77 83.3039C268.642 81.3839 268.514 79.4639 268.514 77.1599V65.6399C255.458 70.5039 250.722 76.0079 250.722 83.4319Z"/>
<path d="M333.135 57.1919C333.135 44.7759 328.911 39.9119 322.127 39.9119C317.519 39.9119 312.399 42.5999 310.095 48.4879V86.6319C310.095 89.9599 313.295 92.5199 316.367 93.1599C317.007 93.2879 317.391 93.6719 317.391 94.8239V95.4639C317.391 96.7439 317.007 96.9999 316.239 96.9999C312.271 96.9999 308.175 96.3599 304.207 96.3599C300.239 96.3599 296.399 96.9999 292.431 96.9999C291.663 96.9999 291.279 96.7439 291.279 95.4639V94.8239C291.279 93.6719 291.791 93.2879 292.815 93.0319C295.631 92.2639 298.575 89.8319 298.575 86.6319V49.6399C298.575 46.4399 296.911 44.1359 292.559 42.9839C291.919 42.8559 291.663 42.3439 291.663 41.7039V40.6799C291.663 40.0399 292.047 39.5279 292.687 39.3999C298.319 38.2479 303.823 34.5359 306.511 31.8479C307.023 31.3359 307.663 31.4639 308.431 31.7199C309.327 32.1039 309.583 32.6159 309.583 33.2559V41.8319C313.935 34.7919 320.207 31.7199 326.863 31.7199C339.151 31.7199 344.655 40.2959 344.655 52.8399V86.6319C344.655 89.9599 347.855 92.5199 350.927 93.1599C351.567 93.2879 351.951 93.6719 351.951 94.8239V95.4639C351.951 96.7439 351.567 96.9999 350.799 96.9999C346.831 96.9999 342.735 96.3599 338.767 96.3599C334.799 96.3599 330.959 96.9999 326.991 96.9999C326.223 96.9999 325.839 96.7439 325.839 95.4639V94.8239C325.839 93.6719 326.351 93.2879 327.375 93.0319C330.191 92.2639 333.135 89.8319 333.135 86.6319V57.1919Z"/>
<path d="M61.2633 131.472C60.6233 131.472 59.9833 130.96 59.8553 129.936C57.5513 117.136 51.4073 113.68 35.6633 113.68H31.5673C27.8553 113.68 24.6553 115.856 24.6553 119.184V151.696H39.1193C45.0073 151.696 49.3593 148.496 49.9993 141.072C50.1273 140.304 50.5113 139.92 51.6633 139.92H52.3033C53.5833 139.92 53.8393 140.304 53.8393 141.072C53.8393 145.808 53.4553 149.136 53.4553 154C53.4553 159.12 53.8393 161.936 53.8393 167.184C53.8393 167.952 53.5833 168.336 52.3033 168.336H51.6633C50.5113 168.336 50.1273 167.824 49.9993 166.672C49.1033 159.504 44.8793 156.56 39.1193 156.56H24.6553V191.632C24.6553 194.96 27.8553 197.136 31.5673 197.136H37.1993C52.9433 197.136 59.0873 193.68 61.3913 180.88C61.5193 179.856 62.1593 179.344 62.7993 179.344H63.8233C64.4633 179.344 64.9753 179.856 64.9753 180.496V197.904C64.9753 201.104 64.2073 202 59.4713 202C48.0793 201.872 42.3193 201.616 31.5673 201.616C17.6153 201.616 8.7833 202 4.4313 202C3.6633 202 3.2793 201.744 3.2793 200.464V199.824C3.2793 198.672 3.7913 198.288 4.8153 198.032C8.9113 197.264 11.8553 194.832 11.8553 191.632V119.184C11.8553 115.984 8.9113 113.552 4.8153 112.784C3.7913 112.528 3.2793 112.144 3.2793 110.992V110.352C3.2793 109.072 3.6633 108.816 4.4313 108.816C8.7833 108.816 17.6153 109.2 31.5673 109.2C40.7833 109.2 46.5433 108.944 57.9353 108.816C62.6713 108.816 63.4393 109.712 63.4393 112.912V130.32C63.4393 130.96 62.9273 131.472 62.2873 131.472H61.2633Z"/>
<path d="M101.449 202C100.681 202 100.297 201.744 100.297 200.464V199.824C100.297 198.672 100.809 198.288 101.833 198.032C105.161 197.264 106.313 194.576 104.137 190.864L95.3053 176.144L86.2173 190.224C83.6573 194.192 85.9613 197.264 90.6973 198.16C91.7213 198.288 92.2333 198.672 92.2333 199.824V200.464C92.2333 201.744 91.8493 202 91.0813 202C87.7533 202 83.4013 201.36 79.8173 201.36C76.7453 201.36 73.1613 202 69.9613 202C69.1933 202 68.8093 201.744 68.8093 200.464V199.824C68.8093 198.672 69.1933 198.288 69.8333 198.16C74.0573 197.52 78.0253 194.704 80.4573 190.992L92.7453 172.048L78.2813 148.112C76.2333 144.784 73.0333 142.352 70.3453 141.84C69.7053 141.712 69.3213 141.328 69.3213 140.176V139.536C69.3213 138.256 69.7053 138 70.4733 138C74.4413 138 77.6413 138.64 82.8893 138.64C88.1373 138.64 91.9773 138 96.5853 138C97.3533 138 97.7373 138.256 97.7373 139.536V140.176C97.7373 141.328 97.2253 141.712 96.2013 141.968C92.7453 142.736 90.5693 145.552 93.1293 149.776L100.553 162.192L108.617 149.776C111.177 145.808 108.873 142.736 105.417 141.968C104.393 141.712 103.881 141.328 103.881 140.176V139.536C103.881 138.256 104.265 138 105.033 138C107.081 138 111.433 138.64 115.017 138.64C118.089 138.64 121.673 138 123.593 138C124.361 138 124.745 138.256 124.745 139.536V140.176C124.745 141.328 124.361 141.712 123.721 141.84C120.777 142.48 116.809 145.296 114.377 149.008L103.113 166.416L117.577 190.608C119.881 194.576 123.849 197.52 125.769 198.16C126.409 198.288 126.793 198.672 126.793 199.824V200.464C126.793 201.744 126.409 202 125.641 202C122.825 202 119.625 201.36 114.377 201.36C109.897 201.36 106.057 202 101.449 202Z"/>
<path d="M163.806 203.92C158.046 203.92 153.822 202.896 148.958 200.08V219.536C148.958 222.864 152.158 225.424 155.23 226.064C155.87 226.192 156.254 226.576 156.254 227.728V228.368C156.254 229.648 155.87 229.904 155.102 229.904C151.134 229.904 147.038 229.264 143.326 229.264C139.614 229.264 135.774 229.904 131.806 229.904C131.038 229.904 130.654 229.648 130.654 228.368V227.728C130.654 226.576 131.166 226.192 132.19 225.936C135.006 225.168 137.95 222.736 137.95 219.536V154.64C137.95 151.44 136.286 149.136 131.934 147.984C131.294 147.856 131.038 147.344 131.038 146.704V145.68C131.038 145.04 131.422 144.528 132.062 144.4C137.694 143.248 143.198 139.536 145.886 136.848C146.398 136.336 147.038 136.464 147.806 136.72C148.702 137.104 148.958 137.616 148.958 138.256V143.376C153.182 139.024 158.558 136.72 165.982 136.72C179.806 136.72 191.838 149.008 191.838 167.952C191.838 192.656 178.654 203.92 163.806 203.92ZM149.47 190.864C153.438 196.368 158.43 199.056 164.19 199.056C173.022 199.056 179.294 192.4 179.294 171.024C179.294 152.464 171.998 143.248 161.886 143.248C157.15 143.248 152.414 145.424 149.47 148.624V190.864Z"/>
<path d="M224.07 203.92C209.734 203.92 196.934 190.352 196.934 170C196.934 147.984 208.838 136.72 223.686 136.72C236.23 136.72 245.702 146.96 245.702 157.584C245.702 162.448 244.166 162.832 241.478 162.832H209.606C209.478 163.984 209.478 165.264 209.478 166.544C209.478 186 218.054 195.728 229.062 195.728C234.95 195.728 239.174 193.168 242.886 188.56C243.526 187.792 244.294 187.664 244.934 188.176L245.446 188.56C246.086 189.072 246.342 189.712 245.958 190.48C241.35 199.184 233.158 203.92 224.07 203.92ZM209.862 158.352H223.046C230.854 158.352 233.158 156.432 233.158 151.568C233.158 145.68 228.678 141.072 223.046 141.072C215.878 141.072 211.27 146.064 209.862 158.352Z"/>
<path d="M249.806 202C249.038 202 248.654 201.744 248.654 200.464V199.824C248.654 198.672 249.166 198.288 250.19 198.032C253.006 197.264 255.95 194.832 255.95 191.632V154.64C255.95 151.44 254.286 149.136 249.934 147.984C249.294 147.856 249.038 147.344 249.038 146.704V145.68C249.038 145.04 249.422 144.528 250.062 144.4C255.694 143.248 261.198 139.536 263.886 136.848C264.398 136.336 265.038 136.464 265.806 136.72C266.702 137.104 266.958 137.616 266.958 138.256V147.216C271.182 141.072 277.582 136.72 282.446 136.72C288.974 136.72 292.174 140.816 292.174 146.32C292.174 150.416 290.126 152.848 286.414 152.848C279.886 152.848 281.166 146.576 275.022 146.576C271.694 146.576 269.134 149.008 267.47 153.488V191.632C267.47 194.96 270.67 197.52 273.742 198.16C274.382 198.288 274.766 198.672 274.766 199.824V200.464C274.766 201.744 274.382 202 273.614 202C269.646 202 265.55 201.36 261.582 201.36C257.614 201.36 253.774 202 249.806 202Z"/>
<path d="M295.306 202C294.538 202 294.154 201.744 294.154 200.464V199.824C294.154 198.672 294.666 198.288 295.69 198.032C298.506 197.264 301.45 194.832 301.45 191.632V155.92C301.45 152.72 299.786 150.416 295.434 149.264C294.794 149.136 294.538 148.624 294.538 147.984V146.96C294.538 146.32 294.922 145.936 295.562 145.68C299.53 144.4 306.186 140.56 309.898 136.848C310.41 136.336 311.05 136.464 311.818 136.72C312.714 137.104 312.97 137.616 312.97 138.256V191.632C312.97 194.96 316.17 197.52 319.242 198.16C319.882 198.288 320.266 198.672 320.266 199.824V200.464C320.266 201.744 319.882 202 319.114 202C315.146 202 311.05 201.36 307.082 201.36C303.114 201.36 299.274 202 295.306 202ZM299.018 118.8C299.018 113.424 302.09 109.84 306.698 109.84C311.306 109.84 314.25 113.424 314.25 118.8C314.25 124.304 311.306 127.888 306.698 127.888C302.09 127.888 299.018 124.304 299.018 118.8Z"/>
<path d="M349.32 203.92C334.984 203.92 322.184 190.352 322.184 170C322.184 147.984 334.088 136.72 348.936 136.72C361.48 136.72 370.952 146.96 370.952 157.584C370.952 162.448 369.416 162.832 366.728 162.832H334.856C334.728 163.984 334.728 165.264 334.728 166.544C334.728 186 343.304 195.728 354.312 195.728C360.2 195.728 364.424 193.168 368.136 188.56C368.776 187.792 369.544 187.664 370.184 188.176L370.696 188.56C371.336 189.072 371.592 189.712 371.208 190.48C366.6 199.184 358.408 203.92 349.32 203.92ZM335.112 158.352H348.296C356.104 158.352 358.408 156.432 358.408 151.568C358.408 145.68 353.928 141.072 348.296 141.072C341.128 141.072 336.52 146.064 335.112 158.352Z"/>
<path d="M415.76 162.192C415.76 149.776 411.536 144.912 404.752 144.912C400.144 144.912 395.024 147.6 392.72 153.488V191.632C392.72 194.96 395.92 197.52 398.992 198.16C399.632 198.288 400.016 198.672 400.016 199.824V200.464C400.016 201.744 399.632 202 398.864 202C394.896 202 390.8 201.36 386.832 201.36C382.864 201.36 379.024 202 375.056 202C374.288 202 373.904 201.744 373.904 200.464V199.824C373.904 198.672 374.416 198.288 375.44 198.032C378.256 197.264 381.2 194.832 381.2 191.632V154.64C381.2 151.44 379.536 149.136 375.184 147.984C374.544 147.856 374.288 147.344 374.288 146.704V145.68C374.288 145.04 374.672 144.528 375.312 144.4C380.944 143.248 386.448 139.536 389.136 136.848C389.648 136.336 390.288 136.464 391.056 136.72C391.952 137.104 392.208 137.616 392.208 138.256V146.832C396.56 139.792 402.832 136.72 409.488 136.72C421.776 136.72 427.28 145.296 427.28 157.84V191.632C427.28 194.96 430.48 197.52 433.552 198.16C434.192 198.288 434.576 198.672 434.576 199.824V200.464C434.576 201.744 434.192 202 433.424 202C429.456 202 425.36 201.36 421.392 201.36C417.424 201.36 413.584 202 409.616 202C408.848 202 408.464 201.744 408.464 200.464V199.824C408.464 198.672 408.976 198.288 410 198.032C412.816 197.264 415.76 194.832 415.76 191.632V162.192Z"/>
<path d="M464.207 203.92C449.871 203.92 436.559 191.632 436.559 168.72C436.559 147.728 448.463 136.72 463.823 136.72C470.479 136.72 478.031 138.896 480.847 141.328C482.255 142.608 482.511 143.376 482.511 145.552V157.84C482.511 158.48 481.999 158.992 481.359 158.992H480.335C479.695 158.992 479.055 158.48 478.799 157.456C475.855 146.192 471.119 141.072 463.695 141.072C455.119 141.072 449.103 149.776 449.103 166.544C449.103 185.232 457.039 195.6 467.919 195.6C473.423 195.6 478.799 193.168 482.511 188.56C483.151 187.792 483.919 187.664 484.559 188.176L485.071 188.56C485.711 189.072 485.967 189.712 485.583 190.48C481.103 199.44 473.935 203.92 464.207 203.92Z"/>
<path d="M516.695 203.92C502.359 203.92 489.559 190.352 489.559 170C489.559 147.984 501.463 136.72 516.311 136.72C528.855 136.72 538.327 146.96 538.327 157.584C538.327 162.448 536.791 162.832 534.103 162.832H502.231C502.103 163.984 502.103 165.264 502.103 166.544C502.103 186 510.679 195.728 521.687 195.728C527.575 195.728 531.799 193.168 535.511 188.56C536.151 187.792 536.919 187.664 537.559 188.176L538.071 188.56C538.711 189.072 538.967 189.712 538.583 190.48C533.975 199.184 525.783 203.92 516.695 203.92ZM502.487 158.352H515.671C523.479 158.352 525.783 156.432 525.783 151.568C525.783 145.68 521.303 141.072 515.671 141.072C508.503 141.072 503.895 146.064 502.487 158.352Z"/>
<path d="M7.4313 310C6.6633 310 6.2793 309.744 6.2793 308.464V307.824C6.2793 306.672 6.7913 306.288 7.8153 306.032C11.9113 305.264 14.8553 302.832 14.8553 299.632V227.184C14.8553 223.984 11.9113 221.552 7.8153 220.784C6.7913 220.528 6.2793 220.144 6.2793 218.992V218.352C6.2793 217.072 6.6633 216.816 7.4313 216.816C12.6793 216.816 16.5193 217.456 21.1273 217.456C25.7353 217.456 29.8313 216.816 35.0793 216.816C35.8473 216.816 36.2313 217.072 36.2313 218.352V218.992C36.2313 220.144 35.8473 220.528 35.2073 220.656C30.8553 221.296 27.6553 223.856 27.6553 227.184V299.632C27.6553 302.96 30.8553 305.52 35.2073 306.16C35.8473 306.288 36.2313 306.672 36.2313 307.824V308.464C36.2313 309.744 35.8473 310 35.0793 310C29.8313 310 25.7353 309.36 21.1273 309.36C16.5193 309.36 12.6793 310 7.4313 310Z"/>
<path d="M80.6353 270.192C80.6353 257.776 76.4113 252.912 69.6273 252.912C65.0193 252.912 59.8993 255.6 57.5953 261.488V299.632C57.5953 302.96 60.7953 305.52 63.8673 306.16C64.5073 306.288 64.8913 306.672 64.8913 307.824V308.464C64.8913 309.744 64.5073 310 63.7393 310C59.7713 310 55.6753 309.36 51.7073 309.36C47.7393 309.36 43.8993 310 39.9313 310C39.1633 310 38.7793 309.744 38.7793 308.464V307.824C38.7793 306.672 39.2913 306.288 40.3153 306.032C43.1313 305.264 46.0753 302.832 46.0753 299.632V262.64C46.0753 259.44 44.4113 257.136 40.0593 255.984C39.4193 255.856 39.1633 255.344 39.1633 254.704V253.68C39.1633 253.04 39.5473 252.528 40.1873 252.4C45.8193 251.248 51.3233 247.536 54.0113 244.848C54.5233 244.336 55.1633 244.464 55.9313 244.72C56.8273 245.104 57.0833 245.616 57.0833 246.256V254.832C61.4353 247.792 67.7073 244.72 74.3633 244.72C86.6513 244.72 92.1553 253.296 92.1553 265.84V299.632C92.1553 302.96 95.3553 305.52 98.4273 306.16C99.0673 306.288 99.4513 306.672 99.4513 307.824V308.464C99.4513 309.744 99.0673 310 98.2993 310C94.3313 310 90.2353 309.36 86.2673 309.36C82.2993 309.36 78.4593 310 74.4913 310C73.7233 310 73.3393 309.744 73.3393 308.464V307.824C73.3393 306.672 73.8513 306.288 74.8753 306.032C77.6913 305.264 80.6353 302.832 80.6353 299.632V270.192Z"/>
<path d="M118.744 311.92C110.68 311.92 105.176 307.312 105.176 290.8V252.656C102.872 252.656 101.464 252.912 100.056 252.912C98.5203 252.912 98.2643 252.272 98.2643 251.376V250.864C98.2643 249.968 98.6483 249.712 100.44 248.816C103.64 247.28 108.12 243.568 113.624 232.944C113.88 232.432 114.776 232.56 115.16 232.688L115.8 232.944C116.44 233.2 116.696 233.712 116.696 234.352V247.152C121.56 247.024 124.632 246.896 127.96 246.64C130.392 246.512 131.16 246.896 131.16 248.304V250.352C131.16 251.76 130.392 252.528 128.088 252.528C125.016 252.528 120.92 252.4 116.696 252.4V286.448C116.696 300.016 118.616 303.984 123.608 303.984C125.272 303.984 127.32 303.344 129.496 301.936C130.264 301.424 131.032 301.168 131.672 301.936L132.184 302.576C132.696 303.216 132.824 303.984 132.184 304.88C128.472 309.744 123.864 311.92 118.744 311.92Z"/>
<path d="M161.695 311.92C147.359 311.92 134.559 298.352 134.559 278C134.559 255.984 146.463 244.72 161.311 244.72C173.855 244.72 183.327 254.96 183.327 265.584C183.327 270.448 181.791 270.832 179.103 270.832H147.231C147.103 271.984 147.103 273.264 147.103 274.544C147.103 294 155.679 303.728 166.687 303.728C172.575 303.728 176.799 301.168 180.511 296.56C181.151 295.792 181.919 295.664 182.559 296.176L183.071 296.56C183.711 297.072 183.967 297.712 183.583 298.48C178.975 307.184 170.783 311.92 161.695 311.92ZM147.487 266.352H160.671C168.479 266.352 170.783 264.432 170.783 259.568C170.783 253.68 166.303 249.072 160.671 249.072C153.503 249.072 148.895 254.064 147.487 266.352Z"/>
<path d="M187.431 310C186.663 310 186.279 309.744 186.279 308.464V307.824C186.279 306.672 186.791 306.288 187.815 306.032C190.631 305.264 193.575 302.832 193.575 299.632V262.64C193.575 259.44 191.911 257.136 187.559 255.984C186.919 255.856 186.663 255.344 186.663 254.704V253.68C186.663 253.04 187.047 252.528 187.687 252.4C193.319 251.248 198.823 247.536 201.511 244.848C202.023 244.336 202.663 244.464 203.431 244.72C204.327 245.104 204.583 245.616 204.583 246.256V255.216C208.807 249.072 215.207 244.72 220.071 244.72C226.599 244.72 229.799 248.816 229.799 254.32C229.799 258.416 227.751 260.848 224.039 260.848C217.511 260.848 218.791 254.576 212.647 254.576C209.319 254.576 206.759 257.008 205.095 261.488V299.632C205.095 302.96 208.295 305.52 211.367 306.16C212.007 306.288 212.391 306.672 212.391 307.824V308.464C212.391 309.744 212.007 310 211.239 310C207.271 310 203.175 309.36 199.207 309.36C195.239 309.36 191.399 310 187.431 310Z"/>
<path d="M271.647 311.28C266.783 311.28 263.199 308.976 261.663 301.552C256.159 308.208 249.375 311.92 241.951 311.92C235.039 311.92 230.559 306.928 230.559 298.736C230.559 290.16 237.471 282.608 260.767 273.648L260.895 265.072C261.279 251.632 259.231 249.072 253.343 249.072C248.735 249.072 246.687 251.248 244.895 257.904C242.975 264.944 240.287 266.608 237.727 266.608C235.295 266.608 232.991 264.048 232.991 260.464C232.991 252.144 244.127 244.72 254.751 244.72C267.551 244.72 272.799 249.2 272.415 263.28C272.287 270.064 272.159 278.896 272.159 287.856C272.287 301.424 273.183 303.344 275.487 303.344C276.511 303.344 277.407 302.96 278.175 301.936C278.559 301.424 279.327 301.04 280.351 301.68L280.735 301.936C281.759 302.576 281.631 303.216 281.247 304.368C279.583 309.232 276.767 311.28 271.647 311.28ZM242.847 296.432C242.847 301.68 245.151 304.112 248.607 304.112C251.423 304.112 256.799 301.68 260.895 296.304C260.767 294.384 260.639 292.464 260.639 290.16V278.64C247.583 283.504 242.847 289.008 242.847 296.432Z"/>
<path d="M309.832 311.92C295.496 311.92 282.184 299.632 282.184 276.72C282.184 255.728 294.088 244.72 309.448 244.72C316.104 244.72 323.656 246.896 326.472 249.328C327.88 250.608 328.136 251.376 328.136 253.552V265.84C328.136 266.48 327.624 266.992 326.984 266.992H325.96C325.32 266.992 324.68 266.48 324.424 265.456C321.48 254.192 316.744 249.072 309.32 249.072C300.744 249.072 294.728 257.776 294.728 274.544C294.728 293.232 302.664 303.6 313.544 303.6C319.048 303.6 324.424 301.168 328.136 296.56C328.776 295.792 329.544 295.664 330.184 296.176L330.696 296.56C331.336 297.072 331.592 297.712 331.208 298.48C326.728 307.44 319.56 311.92 309.832 311.92Z"/>
<path d="M353.744 311.92C345.68 311.92 340.176 307.312 340.176 290.8V252.656C337.872 252.656 336.464 252.912 335.056 252.912C333.52 252.912 333.264 252.272 333.264 251.376V250.864C333.264 249.968 333.648 249.712 335.44 248.816C338.64 247.28 343.12 243.568 348.624 232.944C348.88 232.432 349.776 232.56 350.16 232.688L350.8 232.944C351.44 233.2 351.696 233.712 351.696 234.352V247.152C356.56 247.024 359.632 246.896 362.96 246.64C365.392 246.512 366.16 246.896 366.16 248.304V250.352C366.16 251.76 365.392 252.528 363.088 252.528C360.016 252.528 355.92 252.4 351.696 252.4V286.448C351.696 300.016 353.616 303.984 358.608 303.984C360.272 303.984 362.32 303.344 364.496 301.936C365.264 301.424 366.032 301.168 366.672 301.936L367.184 302.576C367.696 303.216 367.824 303.984 367.184 304.88C363.472 309.744 358.864 311.92 353.744 311.92Z"/>
<path d="M370.681 310C369.913 310 369.529 309.744 369.529 308.464V307.824C369.529 306.672 370.041 306.288 371.065 306.032C373.881 305.264 376.825 302.832 376.825 299.632V263.92C376.825 260.72 375.161 258.416 370.809 257.264C370.169 257.136 369.913 256.624 369.913 255.984V254.96C369.913 254.32 370.297 253.936 370.937 253.68C374.905 252.4 381.561 248.56 385.273 244.848C385.785 244.336 386.425 244.464 387.193 244.72C388.089 245.104 388.345 245.616 388.345 246.256V299.632C388.345 302.96 391.545 305.52 394.617 306.16C395.257 306.288 395.641 306.672 395.641 307.824V308.464C395.641 309.744 395.257 310 394.489 310C390.521 310 386.425 309.36 382.457 309.36C378.489 309.36 374.649 310 370.681 310ZM374.393 226.8C374.393 221.424 377.465 217.84 382.073 217.84C386.681 217.84 389.625 221.424 389.625 226.8C389.625 232.304 386.681 235.888 382.073 235.888C377.465 235.888 374.393 232.304 374.393 226.8Z"/>
<path d="M424.951 311.92C408.311 311.92 397.559 298.736 397.559 278.64C397.559 258.16 408.311 244.72 424.823 244.72C441.207 244.72 451.703 257.904 451.703 277.744C451.703 298.352 441.207 311.92 424.951 311.92ZM410.103 277.488C410.103 296.688 415.863 307.952 425.975 307.952C434.295 307.952 439.159 297.328 439.159 279.28C439.159 259.952 433.655 248.688 424.055 248.688C415.223 248.688 410.103 259.312 410.103 277.488Z"/>
<path d="M497.385 270.192C497.385 257.776 493.161 252.912 486.377 252.912C481.769 252.912 476.649 255.6 474.345 261.488V299.632C474.345 302.96 477.545 305.52 480.617 306.16C481.257 306.288 481.641 306.672 481.641 307.824V308.464C481.641 309.744 481.257 310 480.489 310C476.521 310 472.425 309.36 468.457 309.36C464.489 309.36 460.649 310 456.681 310C455.913 310 455.529 309.744 455.529 308.464V307.824C455.529 306.672 456.041 306.288 457.065 306.032C459.881 305.264 462.825 302.832 462.825 299.632V262.64C462.825 259.44 461.161 257.136 456.809 255.984C456.169 255.856 455.913 255.344 455.913 254.704V253.68C455.913 253.04 456.297 252.528 456.937 252.4C462.569 251.248 468.073 247.536 470.761 244.848C471.273 244.336 471.913 244.464 472.681 244.72C473.577 245.104 473.833 245.616 473.833 246.256V254.832C478.185 247.792 484.457 244.72 491.113 244.72C503.401 244.72 508.905 253.296 508.905 265.84V299.632C508.905 302.96 512.105 305.52 515.177 306.16C515.817 306.288 516.201 306.672 516.201 307.824V308.464C516.201 309.744 515.817 310 515.049 310C511.081 310 506.985 309.36 503.017 309.36C499.049 309.36 495.209 310 491.241 310C490.473 310 490.089 309.744 490.089 308.464V307.824C490.089 306.672 490.601 306.288 491.625 306.032C494.441 305.264 497.385 302.832 497.385 299.632V270.192Z"/>
</mask>
<path d="M7.4313 96.9999C6.6633 96.9999 6.2793 96.7439 6.2793 95.4639V94.8239C6.2793 93.6719 6.7913 93.2879 7.8153 93.0319C11.9113 92.2639 14.8553 89.8319 14.8553 86.6319V14.1839C14.8553 10.9839 11.9113 8.55192 7.8153 7.78392C6.7913 7.52792 6.2793 7.14392 6.2793 5.99192V5.35192C6.2793 4.07192 6.6633 3.81592 7.4313 3.81592C12.6793 3.81592 16.5193 4.45592 21.1273 4.45592C25.7353 4.45592 29.8313 3.81592 35.0793 3.81592C35.8473 3.81592 36.2313 4.07192 36.2313 5.35192V5.99192C36.2313 7.14392 35.8473 7.52792 35.2073 7.65592C30.8553 8.29592 27.6553 10.8559 27.6553 14.1839V46.4399H59.0153V14.1839C59.0153 10.9839 56.0713 8.55192 51.9753 7.78392C50.9513 7.52792 50.4393 7.14392 50.4393 5.99192V5.35192C50.4393 4.07192 50.8233 3.81592 51.5913 3.81592C56.8393 3.81592 60.6793 4.45592 65.2873 4.45592C69.8953 4.45592 73.9913 3.81592 79.2393 3.81592C80.0073 3.81592 80.3913 4.07192 80.3913 5.35192V5.99192C80.3913 7.14392 80.0073 7.52792 79.3673 7.65592C75.0153 8.29592 71.8153 10.8559 71.8153 14.1839V86.6319C71.8153 89.9599 75.0153 92.5199 79.3673 93.1599C80.0073 93.2879 80.3913 93.6719 80.3913 94.8239V95.4639C80.3913 96.7439 80.0073 96.9999 79.2393 96.9999C73.9913 96.9999 69.8953 96.3599 65.2873 96.3599C60.6793 96.3599 56.8393 96.9999 51.5913 96.9999C50.8233 96.9999 50.4393 96.7439 50.4393 95.4639V94.8239C50.4393 93.6719 50.9513 93.2879 51.9753 93.0319C56.0713 92.2639 59.0153 89.8319 59.0153 86.6319V51.5599H27.6553V86.6319C27.6553 89.9599 30.8553 92.5199 35.2073 93.1599C35.8473 93.2879 36.2313 93.6719 36.2313 94.8239V95.4639C36.2313 96.7439 35.8473 96.9999 35.0793 96.9999C29.8313 96.9999 25.7353 96.3599 21.1273 96.3599C16.5193 96.3599 12.6793 96.9999 7.4313 96.9999Z" fill="black"/>
<path d="M107.992 98.9199C95.7043 98.9199 90.2003 90.3439 90.2003 77.7999V43.3679C90.2003 40.0399 87.0003 37.4799 83.9283 36.8399C83.2883 36.7119 82.9043 36.3279 82.9043 35.1759V34.5359C82.9043 33.2559 83.2883 32.9999 84.0563 32.9999C86.8723 32.9999 89.6883 33.6399 93.9123 33.6399C95.8323 33.6399 97.8803 33.3839 100.44 33.3839C103.512 33.3839 101.72 36.0719 101.72 45.9279V73.4479C101.72 85.8639 105.944 90.7279 112.728 90.7279C117.336 90.7279 122.456 88.0399 124.76 82.1519V43.3679C124.76 40.0399 121.56 37.4799 118.488 36.8399C117.848 36.7119 117.464 36.3279 117.464 35.1759V34.5359C117.464 33.2559 117.848 32.9999 118.616 32.9999C121.432 32.9999 124.248 33.6399 128.472 33.6399C130.392 33.6399 132.44 33.3839 135 33.3839C138.072 33.3839 136.28 36.0719 136.28 45.9279V80.2319C136.28 85.4799 137.944 87.7839 142.296 88.9359C142.936 89.0639 143.192 89.5759 143.192 90.2159V91.2399C143.192 91.8799 142.808 92.3919 142.168 92.5199C137.816 93.0319 131.288 95.3359 128.6 97.8959C127.96 98.4079 127.448 98.5359 126.424 98.1519C125.528 97.7679 125.272 97.2559 125.272 96.6159V88.8079C120.92 95.8479 114.648 98.9199 107.992 98.9199Z" fill="black"/>
<path d="M217.73 52.8399C217.73 43.4959 214.274 39.9119 208.642 39.9119C204.034 39.9119 198.914 42.5999 196.61 48.6159V86.6319C196.61 89.9599 199.81 92.5199 202.882 93.1599C203.522 93.2879 203.906 93.6719 203.906 94.8239V95.4639C203.906 96.7439 203.522 96.9999 202.754 96.9999C198.786 96.9999 194.69 96.3599 190.722 96.3599C186.754 96.3599 182.914 96.9999 178.946 96.9999C178.178 96.9999 177.794 96.7439 177.794 95.4639V94.8239C177.794 93.6719 178.306 93.2879 179.33 93.0319C182.146 92.2639 185.09 89.8319 185.09 86.6319V52.8399C185.09 43.4959 181.634 39.9119 176.002 39.9119C171.394 39.9119 166.274 42.5999 163.97 48.4879V86.6319C163.97 89.9599 167.17 92.5199 170.242 93.1599C170.882 93.2879 171.266 93.6719 171.266 94.8239V95.4639C171.266 96.7439 170.882 96.9999 170.114 96.9999C166.146 96.9999 162.05 96.3599 158.082 96.3599C154.114 96.3599 150.274 96.9999 146.306 96.9999C145.538 96.9999 145.154 96.7439 145.154 95.4639V94.8239C145.154 93.6719 145.666 93.2879 146.69 93.0319C149.506 92.2639 152.45 89.8319 152.45 86.6319V49.6399C152.45 46.4399 150.786 44.1359 146.434 42.9839C145.794 42.8559 145.538 42.3439 145.538 41.7039V40.6799C145.538 40.0399 145.922 39.5279 146.562 39.3999C152.194 38.2479 157.698 34.5359 160.386 31.8479C160.898 31.3359 161.538 31.4639 162.306 31.7199C163.202 32.1039 163.458 32.6159 163.458 33.2559V42.5999C167.81 35.0479 173.826 31.7199 180.738 31.7199C188.418 31.7199 193.666 36.0719 195.714 43.2399C200.066 35.3039 206.338 31.7199 213.378 31.7199C223.362 31.7199 229.25 39.0159 229.25 50.5359V86.6319C229.25 89.9599 232.45 92.5199 235.522 93.1599C236.162 93.2879 236.546 93.6719 236.546 94.8239V95.4639C236.546 96.7439 236.162 96.9999 235.394 96.9999C231.426 96.9999 227.33 96.3599 223.362 96.3599C219.394 96.3599 215.554 96.9999 211.586 96.9999C210.818 96.9999 210.434 96.7439 210.434 95.4639V94.8239C210.434 93.6719 210.946 93.2879 211.97 93.0319C214.786 92.2639 217.73 89.8319 217.73 86.6319V52.8399Z" fill="black"/>
<path d="M279.522 98.2799C274.658 98.2799 271.074 95.9759 269.538 88.5519C264.034 95.2079 257.25 98.9199 249.826 98.9199C242.914 98.9199 238.434 93.9279 238.434 85.7359C238.434 77.1599 245.346 69.6079 268.642 60.6479L268.77 52.0719C269.154 38.6319 267.106 36.0719 261.218 36.0719C256.61 36.0719 254.562 38.2479 252.77 44.9039C250.85 51.9439 248.162 53.6079 245.602 53.6079C243.17 53.6079 240.866 51.0479 240.866 47.4639C240.866 39.1439 252.002 31.7199 262.626 31.7199C275.426 31.7199 280.674 36.1999 280.29 50.2799C280.162 57.0639 280.034 65.8959 280.034 74.8559C280.162 88.4239 281.058 90.3439 283.362 90.3439C284.386 90.3439 285.282 89.9599 286.05 88.9359C286.434 88.4239 287.202 88.0399 288.226 88.6799L288.61 88.9359C289.634 89.5759 289.506 90.2159 289.122 91.3679C287.458 96.2319 284.642 98.2799 279.522 98.2799ZM250.722 83.4319C250.722 88.6799 253.026 91.1119 256.482 91.1119C259.298 91.1119 264.674 88.6799 268.77 83.3039C268.642 81.3839 268.514 79.4639 268.514 77.1599V65.6399C255.458 70.5039 250.722 76.0079 250.722 83.4319Z" fill="black"/>
<path d="M333.135 57.1919C333.135 44.7759 328.911 39.9119 322.127 39.9119C317.519 39.9119 312.399 42.5999 310.095 48.4879V86.6319C310.095 89.9599 313.295 92.5199 316.367 93.1599C317.007 93.2879 317.391 93.6719 317.391 94.8239V95.4639C317.391 96.7439 317.007 96.9999 316.239 96.9999C312.271 96.9999 308.175 96.3599 304.207 96.3599C300.239 96.3599 296.399 96.9999 292.431 96.9999C291.663 96.9999 291.279 96.7439 291.279 95.4639V94.8239C291.279 93.6719 291.791 93.2879 292.815 93.0319C295.631 92.2639 298.575 89.8319 298.575 86.6319V49.6399C298.575 46.4399 296.911 44.1359 292.559 42.9839C291.919 42.8559 291.663 42.3439 291.663 41.7039V40.6799C291.663 40.0399 292.047 39.5279 292.687 39.3999C298.319 38.2479 303.823 34.5359 306.511 31.8479C307.023 31.3359 307.663 31.4639 308.431 31.7199C309.327 32.1039 309.583 32.6159 309.583 33.2559V41.8319C313.935 34.7919 320.207 31.7199 326.863 31.7199C339.151 31.7199 344.655 40.2959 344.655 52.8399V86.6319C344.655 89.9599 347.855 92.5199 350.927 93.1599C351.567 93.2879 351.951 93.6719 351.951 94.8239V95.4639C351.951 96.7439 351.567 96.9999 350.799 96.9999C346.831 96.9999 342.735 96.3599 338.767 96.3599C334.799 96.3599 330.959 96.9999 326.991 96.9999C326.223 96.9999 325.839 96.7439 325.839 95.4639V94.8239C325.839 93.6719 326.351 93.2879 327.375 93.0319C330.191 92.2639 333.135 89.8319 333.135 86.6319V57.1919Z" fill="black"/>
<path d="M61.2633 131.472C60.6233 131.472 59.9833 130.96 59.8553 129.936C57.5513 117.136 51.4073 113.68 35.6633 113.68H31.5673C27.8553 113.68 24.6553 115.856 24.6553 119.184V151.696H39.1193C45.0073 151.696 49.3593 148.496 49.9993 141.072C50.1273 140.304 50.5113 139.92 51.6633 139.92H52.3033C53.5833 139.92 53.8393 140.304 53.8393 141.072C53.8393 145.808 53.4553 149.136 53.4553 154C53.4553 159.12 53.8393 161.936 53.8393 167.184C53.8393 167.952 53.5833 168.336 52.3033 168.336H51.6633C50.5113 168.336 50.1273 167.824 49.9993 166.672C49.1033 159.504 44.8793 156.56 39.1193 156.56H24.6553V191.632C24.6553 194.96 27.8553 197.136 31.5673 197.136H37.1993C52.9433 197.136 59.0873 193.68 61.3913 180.88C61.5193 179.856 62.1593 179.344 62.7993 179.344H63.8233C64.4633 179.344 64.9753 179.856 64.9753 180.496V197.904C64.9753 201.104 64.2073 202 59.4713 202C48.0793 201.872 42.3193 201.616 31.5673 201.616C17.6153 201.616 8.7833 202 4.4313 202C3.6633 202 3.2793 201.744 3.2793 200.464V199.824C3.2793 198.672 3.7913 198.288 4.8153 198.032C8.9113 197.264 11.8553 194.832 11.8553 191.632V119.184C11.8553 115.984 8.9113 113.552 4.8153 112.784C3.7913 112.528 3.2793 112.144 3.2793 110.992V110.352C3.2793 109.072 3.6633 108.816 4.4313 108.816C8.7833 108.816 17.6153 109.2 31.5673 109.2C40.7833 109.2 46.5433 108.944 57.9353 108.816C62.6713 108.816 63.4393 109.712 63.4393 112.912V130.32C63.4393 130.96 62.9273 131.472 62.2873 131.472H61.2633Z" fill="black"/>
<path d="M101.449 202C100.681 202 100.297 201.744 100.297 200.464V199.824C100.297 198.672 100.809 198.288 101.833 198.032C105.161 197.264 106.313 194.576 104.137 190.864L95.3053 176.144L86.2173 190.224C83.6573 194.192 85.9613 197.264 90.6973 198.16C91.7213 198.288 92.2333 198.672 92.2333 199.824V200.464C92.2333 201.744 91.8493 202 91.0813 202C87.7533 202 83.4013 201.36 79.8173 201.36C76.7453 201.36 73.1613 202 69.9613 202C69.1933 202 68.8093 201.744 68.8093 200.464V199.824C68.8093 198.672 69.1933 198.288 69.8333 198.16C74.0573 197.52 78.0253 194.704 80.4573 190.992L92.7453 172.048L78.2813 148.112C76.2333 144.784 73.0333 142.352 70.3453 141.84C69.7053 141.712 69.3213 141.328 69.3213 140.176V139.536C69.3213 138.256 69.7053 138 70.4733 138C74.4413 138 77.6413 138.64 82.8893 138.64C88.1373 138.64 91.9773 138 96.5853 138C97.3533 138 97.7373 138.256 97.7373 139.536V140.176C97.7373 141.328 97.2253 141.712 96.2013 141.968C92.7453 142.736 90.5693 145.552 93.1293 149.776L100.553 162.192L108.617 149.776C111.177 145.808 108.873 142.736 105.417 141.968C104.393 141.712 103.881 141.328 103.881 140.176V139.536C103.881 138.256 104.265 138 105.033 138C107.081 138 111.433 138.64 115.017 138.64C118.089 138.64 121.673 138 123.593 138C124.361 138 124.745 138.256 124.745 139.536V140.176C124.745 141.328 124.361 141.712 123.721 141.84C120.777 142.48 116.809 145.296 114.377 149.008L103.113 166.416L117.577 190.608C119.881 194.576 123.849 197.52 125.769 198.16C126.409 198.288 126.793 198.672 126.793 199.824V200.464C126.793 201.744 126.409 202 125.641 202C122.825 202 119.625 201.36 114.377 201.36C109.897 201.36 106.057 202 101.449 202Z" fill="black"/>
<path d="M163.806 203.92C158.046 203.92 153.822 202.896 148.958 200.08V219.536C148.958 222.864 152.158 225.424 155.23 226.064C155.87 226.192 156.254 226.576 156.254 227.728V228.368C156.254 229.648 155.87 229.904 155.102 229.904C151.134 229.904 147.038 229.264 143.326 229.264C139.614 229.264 135.774 229.904 131.806 229.904C131.038 229.904 130.654 229.648 130.654 228.368V227.728C130.654 226.576 131.166 226.192 132.19 225.936C135.006 225.168 137.95 222.736 137.95 219.536V154.64C137.95 151.44 136.286 149.136 131.934 147.984C131.294 147.856 131.038 147.344 131.038 146.704V145.68C131.038 145.04 131.422 144.528 132.062 144.4C137.694 143.248 143.198 139.536 145.886 136.848C146.398 136.336 147.038 136.464 147.806 136.72C148.702 137.104 148.958 137.616 148.958 138.256V143.376C153.182 139.024 158.558 136.72 165.982 136.72C179.806 136.72 191.838 149.008 191.838 167.952C191.838 192.656 178.654 203.92 163.806 203.92ZM149.47 190.864C153.438 196.368 158.43 199.056 164.19 199.056C173.022 199.056 179.294 192.4 179.294 171.024C179.294 152.464 171.998 143.248 161.886 143.248C157.15 143.248 152.414 145.424 149.47 148.624V190.864Z" fill="black"/>
<path d="M224.07 203.92C209.734 203.92 196.934 190.352 196.934 170C196.934 147.984 208.838 136.72 223.686 136.72C236.23 136.72 245.702 146.96 245.702 157.584C245.702 162.448 244.166 162.832 241.478 162.832H209.606C209.478 163.984 209.478 165.264 209.478 166.544C209.478 186 218.054 195.728 229.062 195.728C234.95 195.728 239.174 193.168 242.886 188.56C243.526 187.792 244.294 187.664 244.934 188.176L245.446 188.56C246.086 189.072 246.342 189.712 245.958 190.48C241.35 199.184 233.158 203.92 224.07 203.92ZM209.862 158.352H223.046C230.854 158.352 233.158 156.432 233.158 151.568C233.158 145.68 228.678 141.072 223.046 141.072C215.878 141.072 211.27 146.064 209.862 158.352Z" fill="black"/>
<path d="M249.806 202C249.038 202 248.654 201.744 248.654 200.464V199.824C248.654 198.672 249.166 198.288 250.19 198.032C253.006 197.264 255.95 194.832 255.95 191.632V154.64C255.95 151.44 254.286 149.136 249.934 147.984C249.294 147.856 249.038 147.344 249.038 146.704V145.68C249.038 145.04 249.422 144.528 250.062 144.4C255.694 143.248 261.198 139.536 263.886 136.848C264.398 136.336 265.038 136.464 265.806 136.72C266.702 137.104 266.958 137.616 266.958 138.256V147.216C271.182 141.072 277.582 136.72 282.446 136.72C288.974 136.72 292.174 140.816 292.174 146.32C292.174 150.416 290.126 152.848 286.414 152.848C279.886 152.848 281.166 146.576 275.022 146.576C271.694 146.576 269.134 149.008 267.47 153.488V191.632C267.47 194.96 270.67 197.52 273.742 198.16C274.382 198.288 274.766 198.672 274.766 199.824V200.464C274.766 201.744 274.382 202 273.614 202C269.646 202 265.55 201.36 261.582 201.36C257.614 201.36 253.774 202 249.806 202Z" fill="black"/>
<path d="M295.306 202C294.538 202 294.154 201.744 294.154 200.464V199.824C294.154 198.672 294.666 198.288 295.69 198.032C298.506 197.264 301.45 194.832 301.45 191.632V155.92C301.45 152.72 299.786 150.416 295.434 149.264C294.794 149.136 294.538 148.624 294.538 147.984V146.96C294.538 146.32 294.922 145.936 295.562 145.68C299.53 144.4 306.186 140.56 309.898 136.848C310.41 136.336 311.05 136.464 311.818 136.72C312.714 137.104 312.97 137.616 312.97 138.256V191.632C312.97 194.96 316.17 197.52 319.242 198.16C319.882 198.288 320.266 198.672 320.266 199.824V200.464C320.266 201.744 319.882 202 319.114 202C315.146 202 311.05 201.36 307.082 201.36C303.114 201.36 299.274 202 295.306 202ZM299.018 118.8C299.018 113.424 302.09 109.84 306.698 109.84C311.306 109.84 314.25 113.424 314.25 118.8C314.25 124.304 311.306 127.888 306.698 127.888C302.09 127.888 299.018 124.304 299.018 118.8Z" fill="black"/>
<path d="M349.32 203.92C334.984 203.92 322.184 190.352 322.184 170C322.184 147.984 334.088 136.72 348.936 136.72C361.48 136.72 370.952 146.96 370.952 157.584C370.952 162.448 369.416 162.832 366.728 162.832H334.856C334.728 163.984 334.728 165.264 334.728 166.544C334.728 186 343.304 195.728 354.312 195.728C360.2 195.728 364.424 193.168 368.136 188.56C368.776 187.792 369.544 187.664 370.184 188.176L370.696 188.56C371.336 189.072 371.592 189.712 371.208 190.48C366.6 199.184 358.408 203.92 349.32 203.92ZM335.112 158.352H348.296C356.104 158.352 358.408 156.432 358.408 151.568C358.408 145.68 353.928 141.072 348.296 141.072C341.128 141.072 336.52 146.064 335.112 158.352Z" fill="black"/>
<path d="M415.76 162.192C415.76 149.776 411.536 144.912 404.752 144.912C400.144 144.912 395.024 147.6 392.72 153.488V191.632C392.72 194.96 395.92 197.52 398.992 198.16C399.632 198.288 400.016 198.672 400.016 199.824V200.464C400.016 201.744 399.632 202 398.864 202C394.896 202 390.8 201.36 386.832 201.36C382.864 201.36 379.024 202 375.056 202C374.288 202 373.904 201.744 373.904 200.464V199.824C373.904 198.672 374.416 198.288 375.44 198.032C378.256 197.264 381.2 194.832 381.2 191.632V154.64C381.2 151.44 379.536 149.136 375.184 147.984C374.544 147.856 374.288 147.344 374.288 146.704V145.68C374.288 145.04 374.672 144.528 375.312 144.4C380.944 143.248 386.448 139.536 389.136 136.848C389.648 136.336 390.288 136.464 391.056 136.72C391.952 137.104 392.208 137.616 392.208 138.256V146.832C396.56 139.792 402.832 136.72 409.488 136.72C421.776 136.72 427.28 145.296 427.28 157.84V191.632C427.28 194.96 430.48 197.52 433.552 198.16C434.192 198.288 434.576 198.672 434.576 199.824V200.464C434.576 201.744 434.192 202 433.424 202C429.456 202 425.36 201.36 421.392 201.36C417.424 201.36 413.584 202 409.616 202C408.848 202 408.464 201.744 408.464 200.464V199.824C408.464 198.672 408.976 198.288 410 198.032C412.816 197.264 415.76 194.832 415.76 191.632V162.192Z" fill="black"/>
<path d="M464.207 203.92C449.871 203.92 436.559 191.632 436.559 168.72C436.559 147.728 448.463 136.72 463.823 136.72C470.479 136.72 478.031 138.896 480.847 141.328C482.255 142.608 482.511 143.376 482.511 145.552V157.84C482.511 158.48 481.999 158.992 481.359 158.992H480.335C479.695 158.992 479.055 158.48 478.799 157.456C475.855 146.192 471.119 141.072 463.695 141.072C455.119 141.072 449.103 149.776 449.103 166.544C449.103 185.232 457.039 195.6 467.919 195.6C473.423 195.6 478.799 193.168 482.511 188.56C483.151 187.792 483.919 187.664 484.559 188.176L485.071 188.56C485.711 189.072 485.967 189.712 485.583 190.48C481.103 199.44 473.935 203.92 464.207 203.92Z" fill="black"/>
<path d="M516.695 203.92C502.359 203.92 489.559 190.352 489.559 170C489.559 147.984 501.463 136.72 516.311 136.72C528.855 136.72 538.327 146.96 538.327 157.584C538.327 162.448 536.791 162.832 534.103 162.832H502.231C502.103 163.984 502.103 165.264 502.103 166.544C502.103 186 510.679 195.728 521.687 195.728C527.575 195.728 531.799 193.168 535.511 188.56C536.151 187.792 536.919 187.664 537.559 188.176L538.071 188.56C538.711 189.072 538.967 189.712 538.583 190.48C533.975 199.184 525.783 203.92 516.695 203.92ZM502.487 158.352H515.671C523.479 158.352 525.783 156.432 525.783 151.568C525.783 145.68 521.303 141.072 515.671 141.072C508.503 141.072 503.895 146.064 502.487 158.352Z" fill="black"/>
<path d="M7.4313 310C6.6633 310 6.2793 309.744 6.2793 308.464V307.824C6.2793 306.672 6.7913 306.288 7.8153 306.032C11.9113 305.264 14.8553 302.832 14.8553 299.632V227.184C14.8553 223.984 11.9113 221.552 7.8153 220.784C6.7913 220.528 6.2793 220.144 6.2793 218.992V218.352C6.2793 217.072 6.6633 216.816 7.4313 216.816C12.6793 216.816 16.5193 217.456 21.1273 217.456C25.7353 217.456 29.8313 216.816 35.0793 216.816C35.8473 216.816 36.2313 217.072 36.2313 218.352V218.992C36.2313 220.144 35.8473 220.528 35.2073 220.656C30.8553 221.296 27.6553 223.856 27.6553 227.184V299.632C27.6553 302.96 30.8553 305.52 35.2073 306.16C35.8473 306.288 36.2313 306.672 36.2313 307.824V308.464C36.2313 309.744 35.8473 310 35.0793 310C29.8313 310 25.7353 309.36 21.1273 309.36C16.5193 309.36 12.6793 310 7.4313 310Z" fill="black"/>
<path d="M80.6353 270.192C80.6353 257.776 76.4113 252.912 69.6273 252.912C65.0193 252.912 59.8993 255.6 57.5953 261.488V299.632C57.5953 302.96 60.7953 305.52 63.8673 306.16C64.5073 306.288 64.8913 306.672 64.8913 307.824V308.464C64.8913 309.744 64.5073 310 63.7393 310C59.7713 310 55.6753 309.36 51.7073 309.36C47.7393 309.36 43.8993 310 39.9313 310C39.1633 310 38.7793 309.744 38.7793 308.464V307.824C38.7793 306.672 39.2913 306.288 40.3153 306.032C43.1313 305.264 46.0753 302.832 46.0753 299.632V262.64C46.0753 259.44 44.4113 257.136 40.0593 255.984C39.4193 255.856 39.1633 255.344 39.1633 254.704V253.68C39.1633 253.04 39.5473 252.528 40.1873 252.4C45.8193 251.248 51.3233 247.536 54.0113 244.848C54.5233 244.336 55.1633 244.464 55.9313 244.72C56.8273 245.104 57.0833 245.616 57.0833 246.256V254.832C61.4353 247.792 67.7073 244.72 74.3633 244.72C86.6513 244.72 92.1553 253.296 92.1553 265.84V299.632C92.1553 302.96 95.3553 305.52 98.4273 306.16C99.0673 306.288 99.4513 306.672 99.4513 307.824V308.464C99.4513 309.744 99.0673 310 98.2993 310C94.3313 310 90.2353 309.36 86.2673 309.36C82.2993 309.36 78.4593 310 74.4913 310C73.7233 310 73.3393 309.744 73.3393 308.464V307.824C73.3393 306.672 73.8513 306.288 74.8753 306.032C77.6913 305.264 80.6353 302.832 80.6353 299.632V270.192Z" fill="black"/>
<path d="M118.744 311.92C110.68 311.92 105.176 307.312 105.176 290.8V252.656C102.872 252.656 101.464 252.912 100.056 252.912C98.5203 252.912 98.2643 252.272 98.2643 251.376V250.864C98.2643 249.968 98.6483 249.712 100.44 248.816C103.64 247.28 108.12 243.568 113.624 232.944C113.88 232.432 114.776 232.56 115.16 232.688L115.8 232.944C116.44 233.2 116.696 233.712 116.696 234.352V247.152C121.56 247.024 124.632 246.896 127.96 246.64C130.392 246.512 131.16 246.896 131.16 248.304V250.352C131.16 251.76 130.392 252.528 128.088 252.528C125.016 252.528 120.92 252.4 116.696 252.4V286.448C116.696 300.016 118.616 303.984 123.608 303.984C125.272 303.984 127.32 303.344 129.496 301.936C130.264 301.424 131.032 301.168 131.672 301.936L132.184 302.576C132.696 303.216 132.824 303.984 132.184 304.88C128.472 309.744 123.864 311.92 118.744 311.92Z" fill="black"/>
<path d="M161.695 311.92C147.359 311.92 134.559 298.352 134.559 278C134.559 255.984 146.463 244.72 161.311 244.72C173.855 244.72 183.327 254.96 183.327 265.584C183.327 270.448 181.791 270.832 179.103 270.832H147.231C147.103 271.984 147.103 273.264 147.103 274.544C147.103 294 155.679 303.728 166.687 303.728C172.575 303.728 176.799 301.168 180.511 296.56C181.151 295.792 181.919 295.664 182.559 296.176L183.071 296.56C183.711 297.072 183.967 297.712 183.583 298.48C178.975 307.184 170.783 311.92 161.695 311.92ZM147.487 266.352H160.671C168.479 266.352 170.783 264.432 170.783 259.568C170.783 253.68 166.303 249.072 160.671 249.072C153.503 249.072 148.895 254.064 147.487 266.352Z" fill="black"/>
<path d="M187.431 310C186.663 310 186.279 309.744 186.279 308.464V307.824C186.279 306.672 186.791 306.288 187.815 306.032C190.631 305.264 193.575 302.832 193.575 299.632V262.64C193.575 259.44 191.911 257.136 187.559 255.984C186.919 255.856 186.663 255.344 186.663 254.704V253.68C186.663 253.04 187.047 252.528 187.687 252.4C193.319 251.248 198.823 247.536 201.511 244.848C202.023 244.336 202.663 244.464 203.431 244.72C204.327 245.104 204.583 245.616 204.583 246.256V255.216C208.807 249.072 215.207 244.72 220.071 244.72C226.599 244.72 229.799 248.816 229.799 254.32C229.799 258.416 227.751 260.848 224.039 260.848C217.511 260.848 218.791 254.576 212.647 254.576C209.319 254.576 206.759 257.008 205.095 261.488V299.632C205.095 302.96 208.295 305.52 211.367 306.16C212.007 306.288 212.391 306.672 212.391 307.824V308.464C212.391 309.744 212.007 310 211.239 310C207.271 310 203.175 309.36 199.207 309.36C195.239 309.36 191.399 310 187.431 310Z" fill="black"/>
<path d="M271.647 311.28C266.783 311.28 263.199 308.976 261.663 301.552C256.159 308.208 249.375 311.92 241.951 311.92C235.039 311.92 230.559 306.928 230.559 298.736C230.559 290.16 237.471 282.608 260.767 273.648L260.895 265.072C261.279 251.632 259.231 249.072 253.343 249.072C248.735 249.072 246.687 251.248 244.895 257.904C242.975 264.944 240.287 266.608 237.727 266.608C235.295 266.608 232.991 264.048 232.991 260.464C232.991 252.144 244.127 244.72 254.751 244.72C267.551 244.72 272.799 249.2 272.415 263.28C272.287 270.064 272.159 278.896 272.159 287.856C272.287 301.424 273.183 303.344 275.487 303.344C276.511 303.344 277.407 302.96 278.175 301.936C278.559 301.424 279.327 301.04 280.351 301.68L280.735 301.936C281.759 302.576 281.631 303.216 281.247 304.368C279.583 309.232 276.767 311.28 271.647 311.28ZM242.847 296.432C242.847 301.68 245.151 304.112 248.607 304.112C251.423 304.112 256.799 301.68 260.895 296.304C260.767 294.384 260.639 292.464 260.639 290.16V278.64C247.583 283.504 242.847 289.008 242.847 296.432Z" fill="black"/>
<path d="M309.832 311.92C295.496 311.92 282.184 299.632 282.184 276.72C282.184 255.728 294.088 244.72 309.448 244.72C316.104 244.72 323.656 246.896 326.472 249.328C327.88 250.608 328.136 251.376 328.136 253.552V265.84C328.136 266.48 327.624 266.992 326.984 266.992H325.96C325.32 266.992 324.68 266.48 324.424 265.456C321.48 254.192 316.744 249.072 309.32 249.072C300.744 249.072 294.728 257.776 294.728 274.544C294.728 293.232 302.664 303.6 313.544 303.6C319.048 303.6 324.424 301.168 328.136 296.56C328.776 295.792 329.544 295.664 330.184 296.176L330.696 296.56C331.336 297.072 331.592 297.712 331.208 298.48C326.728 307.44 319.56 311.92 309.832 311.92Z" fill="black"/>
<path d="M353.744 311.92C345.68 311.92 340.176 307.312 340.176 290.8V252.656C337.872 252.656 336.464 252.912 335.056 252.912C333.52 252.912 333.264 252.272 333.264 251.376V250.864C333.264 249.968 333.648 249.712 335.44 248.816C338.64 247.28 343.12 243.568 348.624 232.944C348.88 232.432 349.776 232.56 350.16 232.688L350.8 232.944C351.44 233.2 351.696 233.712 351.696 234.352V247.152C356.56 247.024 359.632 246.896 362.96 246.64C365.392 246.512 366.16 246.896 366.16 248.304V250.352C366.16 251.76 365.392 252.528 363.088 252.528C360.016 252.528 355.92 252.4 351.696 252.4V286.448C351.696 300.016 353.616 303.984 358.608 303.984C360.272 303.984 362.32 303.344 364.496 301.936C365.264 301.424 366.032 301.168 366.672 301.936L367.184 302.576C367.696 303.216 367.824 303.984 367.184 304.88C363.472 309.744 358.864 311.92 353.744 311.92Z" fill="black"/>
<path d="M370.681 310C369.913 310 369.529 309.744 369.529 308.464V307.824C369.529 306.672 370.041 306.288 371.065 306.032C373.881 305.264 376.825 302.832 376.825 299.632V263.92C376.825 260.72 375.161 258.416 370.809 257.264C370.169 257.136 369.913 256.624 369.913 255.984V254.96C369.913 254.32 370.297 253.936 370.937 253.68C374.905 252.4 381.561 248.56 385.273 244.848C385.785 244.336 386.425 244.464 387.193 244.72C388.089 245.104 388.345 245.616 388.345 246.256V299.632C388.345 302.96 391.545 305.52 394.617 306.16C395.257 306.288 395.641 306.672 395.641 307.824V308.464C395.641 309.744 395.257 310 394.489 310C390.521 310 386.425 309.36 382.457 309.36C378.489 309.36 374.649 310 370.681 310ZM374.393 226.8C374.393 221.424 377.465 217.84 382.073 217.84C386.681 217.84 389.625 221.424 389.625 226.8C389.625 232.304 386.681 235.888 382.073 235.888C377.465 235.888 374.393 232.304 374.393 226.8Z" fill="black"/>
<path d="M424.951 311.92C408.311 311.92 397.559 298.736 397.559 278.64C397.559 258.16 408.311 244.72 424.823 244.72C441.207 244.72 451.703 257.904 451.703 277.744C451.703 298.352 441.207 311.92 424.951 311.92ZM410.103 277.488C410.103 296.688 415.863 307.952 425.975 307.952C434.295 307.952 439.159 297.328 439.159 279.28C439.159 259.952 433.655 248.688 424.055 248.688C415.223 248.688 410.103 259.312 410.103 277.488Z" fill="black"/>
<path d="M497.385 270.192C497.385 257.776 493.161 252.912 486.377 252.912C481.769 252.912 476.649 255.6 474.345 261.488V299.632C474.345 302.96 477.545 305.52 480.617 306.16C481.257 306.288 481.641 306.672 481.641 307.824V308.464C481.641 309.744 481.257 310 480.489 310C476.521 310 472.425 309.36 468.457 309.36C464.489 309.36 460.649 310 456.681 310C455.913 310 455.529 309.744 455.529 308.464V307.824C455.529 306.672 456.041 306.288 457.065 306.032C459.881 305.264 462.825 302.832 462.825 299.632V262.64C462.825 259.44 461.161 257.136 456.809 255.984C456.169 255.856 455.913 255.344 455.913 254.704V253.68C455.913 253.04 456.297 252.528 456.937 252.4C462.569 251.248 468.073 247.536 470.761 244.848C471.273 244.336 471.913 244.464 472.681 244.72C473.577 245.104 473.833 245.616 473.833 246.256V254.832C478.185 247.792 484.457 244.72 491.113 244.72C503.401 244.72 508.905 253.296 508.905 265.84V299.632C508.905 302.96 512.105 305.52 515.177 306.16C515.817 306.288 516.201 306.672 516.201 307.824V308.464C516.201 309.744 515.817 310 515.049 310C511.081 310 506.985 309.36 503.017 309.36C499.049 309.36 495.209 310 491.241 310C490.473 310 490.089 309.744 490.089 308.464V307.824C490.089 306.672 490.601 306.288 491.625 306.032C494.441 305.264 497.385 302.832 497.385 299.632V270.192Z" fill="black"/>
<path d="M7.4313 96.9999C6.6633 96.9999 6.2793 96.7439 6.2793 95.4639V94.8239C6.2793 93.6719 6.7913 93.2879 7.8153 93.0319C11.9113 92.2639 14.8553 89.8319 14.8553 86.6319V14.1839C14.8553 10.9839 11.9113 8.55192 7.8153 7.78392C6.7913 7.52792 6.2793 7.14392 6.2793 5.99192V5.35192C6.2793 4.07192 6.6633 3.81592 7.4313 3.81592C12.6793 3.81592 16.5193 4.45592 21.1273 4.45592C25.7353 4.45592 29.8313 3.81592 35.0793 3.81592C35.8473 3.81592 36.2313 4.07192 36.2313 5.35192V5.99192C36.2313 7.14392 35.8473 7.52792 35.2073 7.65592C30.8553 8.29592 27.6553 10.8559 27.6553 14.1839V46.4399H59.0153V14.1839C59.0153 10.9839 56.0713 8.55192 51.9753 7.78392C50.9513 7.52792 50.4393 7.14392 50.4393 5.99192V5.35192C50.4393 4.07192 50.8233 3.81592 51.5913 3.81592C56.8393 3.81592 60.6793 4.45592 65.2873 4.45592C69.8953 4.45592 73.9913 3.81592 79.2393 3.81592C80.0073 3.81592 80.3913 4.07192 80.3913 5.35192V5.99192C80.3913 7.14392 80.0073 7.52792 79.3673 7.65592C75.0153 8.29592 71.8153 10.8559 71.8153 14.1839V86.6319C71.8153 89.9599 75.0153 92.5199 79.3673 93.1599C80.0073 93.2879 80.3913 93.6719 80.3913 94.8239V95.4639C80.3913 96.7439 80.0073 96.9999 79.2393 96.9999C73.9913 96.9999 69.8953 96.3599 65.2873 96.3599C60.6793 96.3599 56.8393 96.9999 51.5913 96.9999C50.8233 96.9999 50.4393 96.7439 50.4393 95.4639V94.8239C50.4393 93.6719 50.9513 93.2879 51.9753 93.0319C56.0713 92.2639 59.0153 89.8319 59.0153 86.6319V51.5599H27.6553V86.6319C27.6553 89.9599 30.8553 92.5199 35.2073 93.1599C35.8473 93.2879 36.2313 93.6719 36.2313 94.8239V95.4639C36.2313 96.7439 35.8473 96.9999 35.0793 96.9999C29.8313 96.9999 25.7353 96.3599 21.1273 96.3599C16.5193 96.3599 12.6793 96.9999 7.4313 96.9999Z" stroke="black" stroke-width="6" mask="url(#path-1-outside-1_1229_1119)"/>
<path d="M107.992 98.9199C95.7043 98.9199 90.2003 90.3439 90.2003 77.7999V43.3679C90.2003 40.0399 87.0003 37.4799 83.9283 36.8399C83.2883 36.7119 82.9043 36.3279 82.9043 35.1759V34.5359C82.9043 33.2559 83.2883 32.9999 84.0563 32.9999C86.8723 32.9999 89.6883 33.6399 93.9123 33.6399C95.8323 33.6399 97.8803 33.3839 100.44 33.3839C103.512 33.3839 101.72 36.0719 101.72 45.9279V73.4479C101.72 85.8639 105.944 90.7279 112.728 90.7279C117.336 90.7279 122.456 88.0399 124.76 82.1519V43.3679C124.76 40.0399 121.56 37.4799 118.488 36.8399C117.848 36.7119 117.464 36.3279 117.464 35.1759V34.5359C117.464 33.2559 117.848 32.9999 118.616 32.9999C121.432 32.9999 124.248 33.6399 128.472 33.6399C130.392 33.6399 132.44 33.3839 135 33.3839C138.072 33.3839 136.28 36.0719 136.28 45.9279V80.2319C136.28 85.4799 137.944 87.7839 142.296 88.9359C142.936 89.0639 143.192 89.5759 143.192 90.2159V91.2399C143.192 91.8799 142.808 92.3919 142.168 92.5199C137.816 93.0319 131.288 95.3359 128.6 97.8959C127.96 98.4079 127.448 98.5359 126.424 98.1519C125.528 97.7679 125.272 97.2559 125.272 96.6159V88.8079C120.92 95.8479 114.648 98.9199 107.992 98.9199Z" stroke="black" stroke-width="6" mask="url(#path-1-outside-1_1229_1119)"/>
<path d="M217.73 52.8399C217.73 43.4959 214.274 39.9119 208.642 39.9119C204.034 39.9119 198.914 42.5999 196.61 48.6159V86.6319C196.61 89.9599 199.81 92.5199 202.882 93.1599C203.522 93.2879 203.906 93.6719 203.906 94.8239V95.4639C203.906 96.7439 203.522 96.9999 202.754 96.9999C198.786 96.9999 194.69 96.3599 190.722 96.3599C186.754 96.3599 182.914 96.9999 178.946 96.9999C178.178 96.9999 177.794 96.7439 177.794 95.4639V94.8239C177.794 93.6719 178.306 93.2879 179.33 93.0319C182.146 92.2639 185.09 89.8319 185.09 86.6319V52.8399C185.09 43.4959 181.634 39.9119 176.002 39.9119C171.394 39.9119 166.274 42.5999 163.97 48.4879V86.6319C163.97 89.9599 167.17 92.5199 170.242 93.1599C170.882 93.2879 171.266 93.6719 171.266 94.8239V95.4639C171.266 96.7439 170.882 96.9999 170.114 96.9999C166.146 96.9999 162.05 96.3599 158.082 96.3599C154.114 96.3599 150.274 96.9999 146.306 96.9999C145.538 96.9999 145.154 96.7439 145.154 95.4639V94.8239C145.154 93.6719 145.666 93.2879 146.69 93.0319C149.506 92.2639 152.45 89.8319 152.45 86.6319V49.6399C152.45 46.4399 150.786 44.1359 146.434 42.9839C145.794 42.8559 145.538 42.3439 145.538 41.7039V40.6799C145.538 40.0399 145.922 39.5279 146.562 39.3999C152.194 38.2479 157.698 34.5359 160.386 31.8479C160.898 31.3359 161.538 31.4639 162.306 31.7199C163.202 32.1039 163.458 32.6159 163.458 33.2559V42.5999C167.81 35.0479 173.826 31.7199 180.738 31.7199C188.418 31.7199 193.666 36.0719 195.714 43.2399C200.066 35.3039 206.338 31.7199 213.378 31.7199C223.362 31.7199 229.25 39.0159 229.25 50.5359V86.6319C229.25 89.9599 232.45 92.5199 235.522 93.1599C236.162 93.2879 236.546 93.6719 236.546 94.8239V95.4639C236.546 96.7439 236.162 96.9999 235.394 96.9999C231.426 96.9999 227.33 96.3599 223.362 96.3599C219.394 96.3599 215.554 96.9999 211.586 96.9999C210.818 96.9999 210.434 96.7439 210.434 95.4639V94.8239C210.434 93.6719 210.946 93.2879 211.97 93.0319C214.786 92.2639 217.73 89.8319 217.73 86.6319V52.8399Z" stroke="black" stroke-width="6" mask="url(#path-1-outside-1_1229_1119)"/>
<path d="M279.522 98.2799C274.658 98.2799 271.074 95.9759 269.538 88.5519C264.034 95.2079 257.25 98.9199 249.826 98.9199C242.914 98.9199 238.434 93.9279 238.434 85.7359C238.434 77.1599 245.346 69.6079 268.642 60.6479L268.77 52.0719C269.154 38.6319 267.106 36.0719 261.218 36.0719C256.61 36.0719 254.562 38.2479 252.77 44.9039C250.85 51.9439 248.162 53.6079 245.602 53.6079C243.17 53.6079 240.866 51.0479 240.866 47.4639C240.866 39.1439 252.002 31.7199 262.626 31.7199C275.426 31.7199 280.674 36.1999 280.29 50.2799C280.162 57.0639 280.034 65.8959 280.034 74.8559C280.162 88.4239 281.058 90.3439 283.362 90.3439C284.386 90.3439 285.282 89.9599 286.05 88.9359C286.434 88.4239 287.202 88.0399 288.226 88.6799L288.61 88.9359C289.634 89.5759 289.506 90.2159 289.122 91.3679C287.458 96.2319 284.642 98.2799 279.522 98.2799ZM250.722 83.4319C250.722 88.6799 253.026 91.1119 256.482 91.1119C259.298 91.1119 264.674 88.6799 268.77 83.3039C268.642 81.3839 268.514 79.4639 268.514 77.1599V65.6399C255.458 70.5039 250.722 76.0079 250.722 83.4319Z" stroke="black" stroke-width="6" mask="url(#path-1-outside-1_1229_1119)"/>
<path d="M333.135 57.1919C333.135 44.7759 328.911 39.9119 322.127 39.9119C317.519 39.9119 312.399 42.5999 310.095 48.4879V86.6319C310.095 89.9599 313.295 92.5199 316.367 93.1599C317.007 93.2879 317.391 93.6719 317.391 94.8239V95.4639C317.391 96.7439 317.007 96.9999 316.239 96.9999C312.271 96.9999 308.175 96.3599 304.207 96.3599C300.239 96.3599 296.399 96.9999 292.431 96.9999C291.663 96.9999 291.279 96.7439 291.279 95.4639V94.8239C291.279 93.6719 291.791 93.2879 292.815 93.0319C295.631 92.2639 298.575 89.8319 298.575 86.6319V49.6399C298.575 46.4399 296.911 44.1359 292.559 42.9839C291.919 42.8559 291.663 42.3439 291.663 41.7039V40.6799C291.663 40.0399 292.047 39.5279 292.687 39.3999C298.319 38.2479 303.823 34.5359 306.511 31.8479C307.023 31.3359 307.663 31.4639 308.431 31.7199C309.327 32.1039 309.583 32.6159 309.583 33.2559V41.8319C313.935 34.7919 320.207 31.7199 326.863 31.7199C339.151 31.7199 344.655 40.2959 344.655 52.8399V86.6319C344.655 89.9599 347.855 92.5199 350.927 93.1599C351.567 93.2879 351.951 93.6719 351.951 94.8239V95.4639C351.951 96.7439 351.567 96.9999 350.799 96.9999C346.831 96.9999 342.735 96.3599 338.767 96.3599C334.799 96.3599 330.959 96.9999 326.991 96.9999C326.223 96.9999 325.839 96.7439 325.839 95.4639V94.8239C325.839 93.6719 326.351 93.2879 327.375 93.0319C330.191 92.2639 333.135 89.8319 333.135 86.6319V57.1919Z" stroke="black" stroke-width="6" mask="url(#path-1-outside-1_1229_1119)"/>
<path d="M61.2633 131.472C60.6233 131.472 59.9833 130.96 59.8553 129.936C57.5513 117.136 51.4073 113.68 35.6633 113.68H31.5673C27.8553 113.68 24.6553 115.856 24.6553 119.184V151.696H39.1193C45.0073 151.696 49.3593 148.496 49.9993 141.072C50.1273 140.304 50.5113 139.92 51.6633 139.92H52.3033C53.5833 139.92 53.8393 140.304 53.8393 141.072C53.8393 145.808 53.4553 149.136 53.4553 154C53.4553 159.12 53.8393 161.936 53.8393 167.184C53.8393 167.952 53.5833 168.336 52.3033 168.336H51.6633C50.5113 168.336 50.1273 167.824 49.9993 166.672C49.1033 159.504 44.8793 156.56 39.1193 156.56H24.6553V191.632C24.6553 194.96 27.8553 197.136 31.5673 197.136H37.1993C52.9433 197.136 59.0873 193.68 61.3913 180.88C61.5193 179.856 62.1593 179.344 62.7993 179.344H63.8233C64.4633 179.344 64.9753 179.856 64.9753 180.496V197.904C64.9753 201.104 64.2073 202 59.4713 202C48.0793 201.872 42.3193 201.616 31.5673 201.616C17.6153 201.616 8.7833 202 4.4313 202C3.6633 202 3.2793 201.744 3.2793 200.464V199.824C3.2793 198.672 3.7913 198.288 4.8153 198.032C8.9113 197.264 11.8553 194.832 11.8553 191.632V119.184C11.8553 115.984 8.9113 113.552 4.8153 112.784C3.7913 112.528 3.2793 112.144 3.2793 110.992V110.352C3.2793 109.072 3.6633 108.816 4.4313 108.816C8.7833 108.816 17.6153 109.2 31.5673 109.2C40.7833 109.2 46.5433 108.944 57.9353 108.816C62.6713 108.816 63.4393 109.712 63.4393 112.912V130.32C63.4393 130.96 62.9273 131.472 62.2873 131.472H61.2633Z" stroke="black" stroke-width="6" mask="url(#path-1-outside-1_1229_1119)"/>
<path d="M101.449 202C100.681 202 100.297 201.744 100.297 200.464V199.824C100.297 198.672 100.809 198.288 101.833 198.032C105.161 197.264 106.313 194.576 104.137 190.864L95.3053 176.144L86.2173 190.224C83.6573 194.192 85.9613 197.264 90.6973 198.16C91.7213 198.288 92.2333 198.672 92.2333 199.824V200.464C92.2333 201.744 91.8493 202 91.0813 202C87.7533 202 83.4013 201.36 79.8173 201.36C76.7453 201.36 73.1613 202 69.9613 202C69.1933 202 68.8093 201.744 68.8093 200.464V199.824C68.8093 198.672 69.1933 198.288 69.8333 198.16C74.0573 197.52 78.0253 194.704 80.4573 190.992L92.7453 172.048L78.2813 148.112C76.2333 144.784 73.0333 142.352 70.3453 141.84C69.7053 141.712 69.3213 141.328 69.3213 140.176V139.536C69.3213 138.256 69.7053 138 70.4733 138C74.4413 138 77.6413 138.64 82.8893 138.64C88.1373 138.64 91.9773 138 96.5853 138C97.3533 138 97.7373 138.256 97.7373 139.536V140.176C97.7373 141.328 97.2253 141.712 96.2013 141.968C92.7453 142.736 90.5693 145.552 93.1293 149.776L100.553 162.192L108.617 149.776C111.177 145.808 108.873 142.736 105.417 141.968C104.393 141.712 103.881 141.328 103.881 140.176V139.536C103.881 138.256 104.265 138 105.033 138C107.081 138 111.433 138.64 115.017 138.64C118.089 138.64 121.673 138 123.593 138C124.361 138 124.745 138.256 124.745 139.536V140.176C124.745 141.328 124.361 141.712 123.721 141.84C120.777 142.48 116.809 145.296 114.377 149.008L103.113 166.416L117.577 190.608C119.881 194.576 123.849 197.52 125.769 198.16C126.409 198.288 126.793 198.672 126.793 199.824V200.464C126.793 201.744 126.409 202 125.641 202C122.825 202 119.625 201.36 114.377 201.36C109.897 201.36 106.057 202 101.449 202Z" stroke="black" stroke-width="6" mask="url(#path-1-outside-1_1229_1119)"/>
<path d="M163.806 203.92C158.046 203.92 153.822 202.896 148.958 200.08V219.536C148.958 222.864 152.158 225.424 155.23 226.064C155.87 226.192 156.254 226.576 156.254 227.728V228.368C156.254 229.648 155.87 229.904 155.102 229.904C151.134 229.904 147.038 229.264 143.326 229.264C139.614 229.264 135.774 229.904 131.806 229.904C131.038 229.904 130.654 229.648 130.654 228.368V227.728C130.654 226.576 131.166 226.192 132.19 225.936C135.006 225.168 137.95 222.736 137.95 219.536V154.64C137.95 151.44 136.286 149.136 131.934 147.984C131.294 147.856 131.038 147.344 131.038 146.704V145.68C131.038 145.04 131.422 144.528 132.062 144.4C137.694 143.248 143.198 139.536 145.886 136.848C146.398 136.336 147.038 136.464 147.806 136.72C148.702 137.104 148.958 137.616 148.958 138.256V143.376C153.182 139.024 158.558 136.72 165.982 136.72C179.806 136.72 191.838 149.008 191.838 167.952C191.838 192.656 178.654 203.92 163.806 203.92ZM149.47 190.864C153.438 196.368 158.43 199.056 164.19 199.056C173.022 199.056 179.294 192.4 179.294 171.024C179.294 152.464 171.998 143.248 161.886 143.248C157.15 143.248 152.414 145.424 149.47 148.624V190.864Z" stroke="black" stroke-width="6" mask="url(#path-1-outside-1_1229_1119)"/>
<path d="M224.07 203.92C209.734 203.92 196.934 190.352 196.934 170C196.934 147.984 208.838 136.72 223.686 136.72C236.23 136.72 245.702 146.96 245.702 157.584C245.702 162.448 244.166 162.832 241.478 162.832H209.606C209.478 163.984 209.478 165.264 209.478 166.544C209.478 186 218.054 195.728 229.062 195.728C234.95 195.728 239.174 193.168 242.886 188.56C243.526 187.792 244.294 187.664 244.934 188.176L245.446 188.56C246.086 189.072 246.342 189.712 245.958 190.48C241.35 199.184 233.158 203.92 224.07 203.92ZM209.862 158.352H223.046C230.854 158.352 233.158 156.432 233.158 151.568C233.158 145.68 228.678 141.072 223.046 141.072C215.878 141.072 211.27 146.064 209.862 158.352Z" stroke="black" stroke-width="6" mask="url(#path-1-outside-1_1229_1119)"/>
<path d="M249.806 202C249.038 202 248.654 201.744 248.654 200.464V199.824C248.654 198.672 249.166 198.288 250.19 198.032C253.006 197.264 255.95 194.832 255.95 191.632V154.64C255.95 151.44 254.286 149.136 249.934 147.984C249.294 147.856 249.038 147.344 249.038 146.704V145.68C249.038 145.04 249.422 144.528 250.062 144.4C255.694 143.248 261.198 139.536 263.886 136.848C264.398 136.336 265.038 136.464 265.806 136.72C266.702 137.104 266.958 137.616 266.958 138.256V147.216C271.182 141.072 277.582 136.72 282.446 136.72C288.974 136.72 292.174 140.816 292.174 146.32C292.174 150.416 290.126 152.848 286.414 152.848C279.886 152.848 281.166 146.576 275.022 146.576C271.694 146.576 269.134 149.008 267.47 153.488V191.632C267.47 194.96 270.67 197.52 273.742 198.16C274.382 198.288 274.766 198.672 274.766 199.824V200.464C274.766 201.744 274.382 202 273.614 202C269.646 202 265.55 201.36 261.582 201.36C257.614 201.36 253.774 202 249.806 202Z" stroke="black" stroke-width="6" mask="url(#path-1-outside-1_1229_1119)"/>
<path d="M295.306 202C294.538 202 294.154 201.744 294.154 200.464V199.824C294.154 198.672 294.666 198.288 295.69 198.032C298.506 197.264 301.45 194.832 301.45 191.632V155.92C301.45 152.72 299.786 150.416 295.434 149.264C294.794 149.136 294.538 148.624 294.538 147.984V146.96C294.538 146.32 294.922 145.936 295.562 145.68C299.53 144.4 306.186 140.56 309.898 136.848C310.41 136.336 311.05 136.464 311.818 136.72C312.714 137.104 312.97 137.616 312.97 138.256V191.632C312.97 194.96 316.17 197.52 319.242 198.16C319.882 198.288 320.266 198.672 320.266 199.824V200.464C320.266 201.744 319.882 202 319.114 202C315.146 202 311.05 201.36 307.082 201.36C303.114 201.36 299.274 202 295.306 202ZM299.018 118.8C299.018 113.424 302.09 109.84 306.698 109.84C311.306 109.84 314.25 113.424 314.25 118.8C314.25 124.304 311.306 127.888 306.698 127.888C302.09 127.888 299.018 124.304 299.018 118.8Z" stroke="black" stroke-width="6" mask="url(#path-1-outside-1_1229_1119)"/>
<path d="M349.32 203.92C334.984 203.92 322.184 190.352 322.184 170C322.184 147.984 334.088 136.72 348.936 136.72C361.48 136.72 370.952 146.96 370.952 157.584C370.952 162.448 369.416 162.832 366.728 162.832H334.856C334.728 163.984 334.728 165.264 334.728 166.544C334.728 186 343.304 195.728 354.312 195.728C360.2 195.728 364.424 193.168 368.136 188.56C368.776 187.792 369.544 187.664 370.184 188.176L370.696 188.56C371.336 189.072 371.592 189.712 371.208 190.48C366.6 199.184 358.408 203.92 349.32 203.92ZM335.112 158.352H348.296C356.104 158.352 358.408 156.432 358.408 151.568C358.408 145.68 353.928 141.072 348.296 141.072C341.128 141.072 336.52 146.064 335.112 158.352Z" stroke="black" stroke-width="6" mask="url(#path-1-outside-1_1229_1119)"/>
<path d="M415.76 162.192C415.76 149.776 411.536 144.912 404.752 144.912C400.144 144.912 395.024 147.6 392.72 153.488V191.632C392.72 194.96 395.92 197.52 398.992 198.16C399.632 198.288 400.016 198.672 400.016 199.824V200.464C400.016 201.744 399.632 202 398.864 202C394.896 202 390.8 201.36 386.832 201.36C382.864 201.36 379.024 202 375.056 202C374.288 202 373.904 201.744 373.904 200.464V199.824C373.904 198.672 374.416 198.288 375.44 198.032C378.256 197.264 381.2 194.832 381.2 191.632V154.64C381.2 151.44 379.536 149.136 375.184 147.984C374.544 147.856 374.288 147.344 374.288 146.704V145.68C374.288 145.04 374.672 144.528 375.312 144.4C380.944 143.248 386.448 139.536 389.136 136.848C389.648 136.336 390.288 136.464 391.056 136.72C391.952 137.104 392.208 137.616 392.208 138.256V146.832C396.56 139.792 402.832 136.72 409.488 136.72C421.776 136.72 427.28 145.296 427.28 157.84V191.632C427.28 194.96 430.48 197.52 433.552 198.16C434.192 198.288 434.576 198.672 434.576 199.824V200.464C434.576 201.744 434.192 202 433.424 202C429.456 202 425.36 201.36 421.392 201.36C417.424 201.36 413.584 202 409.616 202C408.848 202 408.464 201.744 408.464 200.464V199.824C408.464 198.672 408.976 198.288 410 198.032C412.816 197.264 415.76 194.832 415.76 191.632V162.192Z" stroke="black" stroke-width="6" mask="url(#path-1-outside-1_1229_1119)"/>
<path d="M464.207 203.92C449.871 203.92 436.559 191.632 436.559 168.72C436.559 147.728 448.463 136.72 463.823 136.72C470.479 136.72 478.031 138.896 480.847 141.328C482.255 142.608 482.511 143.376 482.511 145.552V157.84C482.511 158.48 481.999 158.992 481.359 158.992H480.335C479.695 158.992 479.055 158.48 478.799 157.456C475.855 146.192 471.119 141.072 463.695 141.072C455.119 141.072 449.103 149.776 449.103 166.544C449.103 185.232 457.039 195.6 467.919 195.6C473.423 195.6 478.799 193.168 482.511 188.56C483.151 187.792 483.919 187.664 484.559 188.176L485.071 188.56C485.711 189.072 485.967 189.712 485.583 190.48C481.103 199.44 473.935 203.92 464.207 203.92Z" stroke="black" stroke-width="6" mask="url(#path-1-outside-1_1229_1119)"/>
<path d="M516.695 203.92C502.359 203.92 489.559 190.352 489.559 170C489.559 147.984 501.463 136.72 516.311 136.72C528.855 136.72 538.327 146.96 538.327 157.584C538.327 162.448 536.791 162.832 534.103 162.832H502.231C502.103 163.984 502.103 165.264 502.103 166.544C502.103 186 510.679 195.728 521.687 195.728C527.575 195.728 531.799 193.168 535.511 188.56C536.151 187.792 536.919 187.664 537.559 188.176L538.071 188.56C538.711 189.072 538.967 189.712 538.583 190.48C533.975 199.184 525.783 203.92 516.695 203.92ZM502.487 158.352H515.671C523.479 158.352 525.783 156.432 525.783 151.568C525.783 145.68 521.303 141.072 515.671 141.072C508.503 141.072 503.895 146.064 502.487 158.352Z" stroke="black" stroke-width="6" mask="url(#path-1-outside-1_1229_1119)"/>
<path d="M7.4313 310C6.6633 310 6.2793 309.744 6.2793 308.464V307.824C6.2793 306.672 6.7913 306.288 7.8153 306.032C11.9113 305.264 14.8553 302.832 14.8553 299.632V227.184C14.8553 223.984 11.9113 221.552 7.8153 220.784C6.7913 220.528 6.2793 220.144 6.2793 218.992V218.352C6.2793 217.072 6.6633 216.816 7.4313 216.816C12.6793 216.816 16.5193 217.456 21.1273 217.456C25.7353 217.456 29.8313 216.816 35.0793 216.816C35.8473 216.816 36.2313 217.072 36.2313 218.352V218.992C36.2313 220.144 35.8473 220.528 35.2073 220.656C30.8553 221.296 27.6553 223.856 27.6553 227.184V299.632C27.6553 302.96 30.8553 305.52 35.2073 306.16C35.8473 306.288 36.2313 306.672 36.2313 307.824V308.464C36.2313 309.744 35.8473 310 35.0793 310C29.8313 310 25.7353 309.36 21.1273 309.36C16.5193 309.36 12.6793 310 7.4313 310Z" stroke="black" stroke-width="6" mask="url(#path-1-outside-1_1229_1119)"/>
<path d="M80.6353 270.192C80.6353 257.776 76.4113 252.912 69.6273 252.912C65.0193 252.912 59.8993 255.6 57.5953 261.488V299.632C57.5953 302.96 60.7953 305.52 63.8673 306.16C64.5073 306.288 64.8913 306.672 64.8913 307.824V308.464C64.8913 309.744 64.5073 310 63.7393 310C59.7713 310 55.6753 309.36 51.7073 309.36C47.7393 309.36 43.8993 310 39.9313 310C39.1633 310 38.7793 309.744 38.7793 308.464V307.824C38.7793 306.672 39.2913 306.288 40.3153 306.032C43.1313 305.264 46.0753 302.832 46.0753 299.632V262.64C46.0753 259.44 44.4113 257.136 40.0593 255.984C39.4193 255.856 39.1633 255.344 39.1633 254.704V253.68C39.1633 253.04 39.5473 252.528 40.1873 252.4C45.8193 251.248 51.3233 247.536 54.0113 244.848C54.5233 244.336 55.1633 244.464 55.9313 244.72C56.8273 245.104 57.0833 245.616 57.0833 246.256V254.832C61.4353 247.792 67.7073 244.72 74.3633 244.72C86.6513 244.72 92.1553 253.296 92.1553 265.84V299.632C92.1553 302.96 95.3553 305.52 98.4273 306.16C99.0673 306.288 99.4513 306.672 99.4513 307.824V308.464C99.4513 309.744 99.0673 310 98.2993 310C94.3313 310 90.2353 309.36 86.2673 309.36C82.2993 309.36 78.4593 310 74.4913 310C73.7233 310 73.3393 309.744 73.3393 308.464V307.824C73.3393 306.672 73.8513 306.288 74.8753 306.032C77.6913 305.264 80.6353 302.832 80.6353 299.632V270.192Z" stroke="black" stroke-width="6" mask="url(#path-1-outside-1_1229_1119)"/>
<path d="M118.744 311.92C110.68 311.92 105.176 307.312 105.176 290.8V252.656C102.872 252.656 101.464 252.912 100.056 252.912C98.5203 252.912 98.2643 252.272 98.2643 251.376V250.864C98.2643 249.968 98.6483 249.712 100.44 248.816C103.64 247.28 108.12 243.568 113.624 232.944C113.88 232.432 114.776 232.56 115.16 232.688L115.8 232.944C116.44 233.2 116.696 233.712 116.696 234.352V247.152C121.56 247.024 124.632 246.896 127.96 246.64C130.392 246.512 131.16 246.896 131.16 248.304V250.352C131.16 251.76 130.392 252.528 128.088 252.528C125.016 252.528 120.92 252.4 116.696 252.4V286.448C116.696 300.016 118.616 303.984 123.608 303.984C125.272 303.984 127.32 303.344 129.496 301.936C130.264 301.424 131.032 301.168 131.672 301.936L132.184 302.576C132.696 303.216 132.824 303.984 132.184 304.88C128.472 309.744 123.864 311.92 118.744 311.92Z" stroke="black" stroke-width="6" mask="url(#path-1-outside-1_1229_1119)"/>
<path d="M161.695 311.92C147.359 311.92 134.559 298.352 134.559 278C134.559 255.984 146.463 244.72 161.311 244.72C173.855 244.72 183.327 254.96 183.327 265.584C183.327 270.448 181.791 270.832 179.103 270.832H147.231C147.103 271.984 147.103 273.264 147.103 274.544C147.103 294 155.679 303.728 166.687 303.728C172.575 303.728 176.799 301.168 180.511 296.56C181.151 295.792 181.919 295.664 182.559 296.176L183.071 296.56C183.711 297.072 183.967 297.712 183.583 298.48C178.975 307.184 170.783 311.92 161.695 311.92ZM147.487 266.352H160.671C168.479 266.352 170.783 264.432 170.783 259.568C170.783 253.68 166.303 249.072 160.671 249.072C153.503 249.072 148.895 254.064 147.487 266.352Z" stroke="black" stroke-width="6" mask="url(#path-1-outside-1_1229_1119)"/>
<path d="M187.431 310C186.663 310 186.279 309.744 186.279 308.464V307.824C186.279 306.672 186.791 306.288 187.815 306.032C190.631 305.264 193.575 302.832 193.575 299.632V262.64C193.575 259.44 191.911 257.136 187.559 255.984C186.919 255.856 186.663 255.344 186.663 254.704V253.68C186.663 253.04 187.047 252.528 187.687 252.4C193.319 251.248 198.823 247.536 201.511 244.848C202.023 244.336 202.663 244.464 203.431 244.72C204.327 245.104 204.583 245.616 204.583 246.256V255.216C208.807 249.072 215.207 244.72 220.071 244.72C226.599 244.72 229.799 248.816 229.799 254.32C229.799 258.416 227.751 260.848 224.039 260.848C217.511 260.848 218.791 254.576 212.647 254.576C209.319 254.576 206.759 257.008 205.095 261.488V299.632C205.095 302.96 208.295 305.52 211.367 306.16C212.007 306.288 212.391 306.672 212.391 307.824V308.464C212.391 309.744 212.007 310 211.239 310C207.271 310 203.175 309.36 199.207 309.36C195.239 309.36 191.399 310 187.431 310Z" stroke="black" stroke-width="6" mask="url(#path-1-outside-1_1229_1119)"/>
<path d="M271.647 311.28C266.783 311.28 263.199 308.976 261.663 301.552C256.159 308.208 249.375 311.92 241.951 311.92C235.039 311.92 230.559 306.928 230.559 298.736C230.559 290.16 237.471 282.608 260.767 273.648L260.895 265.072C261.279 251.632 259.231 249.072 253.343 249.072C248.735 249.072 246.687 251.248 244.895 257.904C242.975 264.944 240.287 266.608 237.727 266.608C235.295 266.608 232.991 264.048 232.991 260.464C232.991 252.144 244.127 244.72 254.751 244.72C267.551 244.72 272.799 249.2 272.415 263.28C272.287 270.064 272.159 278.896 272.159 287.856C272.287 301.424 273.183 303.344 275.487 303.344C276.511 303.344 277.407 302.96 278.175 301.936C278.559 301.424 279.327 301.04 280.351 301.68L280.735 301.936C281.759 302.576 281.631 303.216 281.247 304.368C279.583 309.232 276.767 311.28 271.647 311.28ZM242.847 296.432C242.847 301.68 245.151 304.112 248.607 304.112C251.423 304.112 256.799 301.68 260.895 296.304C260.767 294.384 260.639 292.464 260.639 290.16V278.64C247.583 283.504 242.847 289.008 242.847 296.432Z" stroke="black" stroke-width="6" mask="url(#path-1-outside-1_1229_1119)"/>
<path d="M309.832 311.92C295.496 311.92 282.184 299.632 282.184 276.72C282.184 255.728 294.088 244.72 309.448 244.72C316.104 244.72 323.656 246.896 326.472 249.328C327.88 250.608 328.136 251.376 328.136 253.552V265.84C328.136 266.48 327.624 266.992 326.984 266.992H325.96C325.32 266.992 324.68 266.48 324.424 265.456C321.48 254.192 316.744 249.072 309.32 249.072C300.744 249.072 294.728 257.776 294.728 274.544C294.728 293.232 302.664 303.6 313.544 303.6C319.048 303.6 324.424 301.168 328.136 296.56C328.776 295.792 329.544 295.664 330.184 296.176L330.696 296.56C331.336 297.072 331.592 297.712 331.208 298.48C326.728 307.44 319.56 311.92 309.832 311.92Z" stroke="black" stroke-width="6" mask="url(#path-1-outside-1_1229_1119)"/>
<path d="M353.744 311.92C345.68 311.92 340.176 307.312 340.176 290.8V252.656C337.872 252.656 336.464 252.912 335.056 252.912C333.52 252.912 333.264 252.272 333.264 251.376V250.864C333.264 249.968 333.648 249.712 335.44 248.816C338.64 247.28 343.12 243.568 348.624 232.944C348.88 232.432 349.776 232.56 350.16 232.688L350.8 232.944C351.44 233.2 351.696 233.712 351.696 234.352V247.152C356.56 247.024 359.632 246.896 362.96 246.64C365.392 246.512 366.16 246.896 366.16 248.304V250.352C366.16 251.76 365.392 252.528 363.088 252.528C360.016 252.528 355.92 252.4 351.696 252.4V286.448C351.696 300.016 353.616 303.984 358.608 303.984C360.272 303.984 362.32 303.344 364.496 301.936C365.264 301.424 366.032 301.168 366.672 301.936L367.184 302.576C367.696 303.216 367.824 303.984 367.184 304.88C363.472 309.744 358.864 311.92 353.744 311.92Z" stroke="black" stroke-width="6" mask="url(#path-1-outside-1_1229_1119)"/>
<path d="M370.681 310C369.913 310 369.529 309.744 369.529 308.464V307.824C369.529 306.672 370.041 306.288 371.065 306.032C373.881 305.264 376.825 302.832 376.825 299.632V263.92C376.825 260.72 375.161 258.416 370.809 257.264C370.169 257.136 369.913 256.624 369.913 255.984V254.96C369.913 254.32 370.297 253.936 370.937 253.68C374.905 252.4 381.561 248.56 385.273 244.848C385.785 244.336 386.425 244.464 387.193 244.72C388.089 245.104 388.345 245.616 388.345 246.256V299.632C388.345 302.96 391.545 305.52 394.617 306.16C395.257 306.288 395.641 306.672 395.641 307.824V308.464C395.641 309.744 395.257 310 394.489 310C390.521 310 386.425 309.36 382.457 309.36C378.489 309.36 374.649 310 370.681 310ZM374.393 226.8C374.393 221.424 377.465 217.84 382.073 217.84C386.681 217.84 389.625 221.424 389.625 226.8C389.625 232.304 386.681 235.888 382.073 235.888C377.465 235.888 374.393 232.304 374.393 226.8Z" stroke="black" stroke-width="6" mask="url(#path-1-outside-1_1229_1119)"/>
<path d="M424.951 311.92C408.311 311.92 397.559 298.736 397.559 278.64C397.559 258.16 408.311 244.72 424.823 244.72C441.207 244.72 451.703 257.904 451.703 277.744C451.703 298.352 441.207 311.92 424.951 311.92ZM410.103 277.488C410.103 296.688 415.863 307.952 425.975 307.952C434.295 307.952 439.159 297.328 439.159 279.28C439.159 259.952 433.655 248.688 424.055 248.688C415.223 248.688 410.103 259.312 410.103 277.488Z" stroke="black" stroke-width="6" mask="url(#path-1-outside-1_1229_1119)"/>
<path d="M497.385 270.192C497.385 257.776 493.161 252.912 486.377 252.912C481.769 252.912 476.649 255.6 474.345 261.488V299.632C474.345 302.96 477.545 305.52 480.617 306.16C481.257 306.288 481.641 306.672 481.641 307.824V308.464C481.641 309.744 481.257 310 480.489 310C476.521 310 472.425 309.36 468.457 309.36C464.489 309.36 460.649 310 456.681 310C455.913 310 455.529 309.744 455.529 308.464V307.824C455.529 306.672 456.041 306.288 457.065 306.032C459.881 305.264 462.825 302.832 462.825 299.632V262.64C462.825 259.44 461.161 257.136 456.809 255.984C456.169 255.856 455.913 255.344 455.913 254.704V253.68C455.913 253.04 456.297 252.528 456.937 252.4C462.569 251.248 468.073 247.536 470.761 244.848C471.273 244.336 471.913 244.464 472.681 244.72C473.577 245.104 473.833 245.616 473.833 246.256V254.832C478.185 247.792 484.457 244.72 491.113 244.72C503.401 244.72 508.905 253.296 508.905 265.84V299.632C508.905 302.96 512.105 305.52 515.177 306.16C515.817 306.288 516.201 306.672 516.201 307.824V308.464C516.201 309.744 515.817 310 515.049 310C511.081 310 506.985 309.36 503.017 309.36C499.049 309.36 495.209 310 491.241 310C490.473 310 490.089 309.744 490.089 308.464V307.824C490.089 306.672 490.601 306.288 491.625 306.032C494.441 305.264 497.385 302.832 497.385 299.632V270.192Z" stroke="black" stroke-width="6" mask="url(#path-1-outside-1_1229_1119)"/>
</svg>
