<svg width="271" height="206" viewBox="0 0 271 206" fill="none" xmlns="http://www.w3.org/2000/svg">
<mask id="path-1-outside-1_1230_1117" maskUnits="userSpaceOnUse" x="0" y="0.280029" width="190" height="99" fill="black">
<rect fill="white" y="0.280029" width="190" height="99"/>
<path d="M4.152 96.592C3.384 96.592 3 96.336 3 95.056V94.416C3 93.264 3.512 92.88 4.536 92.624C8.632 91.856 11.576 89.424 11.576 86.224V13.776C11.576 10.576 8.632 8.14403 4.536 7.37603C3.512 7.12003 3 6.73603 3 5.58403V4.94403C3 3.66403 3.384 3.40803 4.152 3.40803C9.4 3.40803 13.24 4.04803 17.848 4.04803C22.456 4.04803 26.552 3.40803 31.8 3.40803C32.568 3.40803 32.952 3.66403 32.952 4.94403V5.58403C32.952 6.73603 32.568 7.12003 31.928 7.24803C27.576 7.88803 24.376 10.448 24.376 13.776V46.032H55.736V13.776C55.736 10.576 52.792 8.14403 48.696 7.37603C47.672 7.12003 47.16 6.73603 47.16 5.58403V4.94403C47.16 3.66403 47.544 3.40803 48.312 3.40803C53.56 3.40803 57.4 4.04803 62.008 4.04803C66.616 4.04803 70.712 3.40803 75.96 3.40803C76.728 3.40803 77.112 3.66403 77.112 4.94403V5.58403C77.112 6.73603 76.728 7.12003 76.088 7.24803C71.736 7.88803 68.536 10.448 68.536 13.776V86.224C68.536 89.552 71.736 92.112 76.088 92.752C76.728 92.88 77.112 93.264 77.112 94.416V95.056C77.112 96.336 76.728 96.592 75.96 96.592C70.712 96.592 66.616 95.952 62.008 95.952C57.4 95.952 53.56 96.592 48.312 96.592C47.544 96.592 47.16 96.336 47.16 95.056V94.416C47.16 93.264 47.672 92.88 48.696 92.624C52.792 91.856 55.736 89.424 55.736 86.224V51.152H24.376V86.224C24.376 89.552 27.576 92.112 31.928 92.752C32.568 92.88 32.952 93.264 32.952 94.416V95.056C32.952 96.336 32.568 96.592 31.8 96.592C26.552 96.592 22.456 95.952 17.848 95.952C13.24 95.952 9.4 96.592 4.152 96.592Z"/>
<path d="M120.713 96.592C119.945 96.592 119.561 96.336 119.561 95.056V94.416C119.561 93.264 120.073 92.88 121.097 92.752C129.545 91.856 130.313 89.168 128.521 85.456L114.057 56.144L98.953 84.816C96.649 89.168 98.697 91.856 106.633 92.752C107.657 92.88 108.169 93.264 108.169 94.416V95.056C108.169 96.336 107.785 96.592 107.017 96.592C101.769 96.592 97.417 95.952 92.553 95.952C88.201 95.952 84.617 96.592 80.137 96.592C79.369 96.592 78.985 96.336 78.985 95.056V94.416C78.985 93.264 79.369 92.88 80.009 92.752C86.793 92.112 91.017 89.68 93.193 85.584L111.625 51.28L92.809 13.392C91.145 10.064 87.561 7.63203 82.313 7.12003C81.673 6.99203 81.289 6.60803 81.289 5.45603V4.81603C81.289 3.53603 81.673 3.28003 82.441 3.28003C87.689 3.28003 90.889 3.92003 97.417 3.92003C103.945 3.92003 108.297 3.28003 115.465 3.28003C116.233 3.28003 116.617 3.53603 116.617 4.81603V5.45603C116.617 6.60803 116.105 6.99203 115.081 7.12003C107.785 8.01603 105.993 10.704 108.169 15.056L120.713 40.784L134.409 15.056C136.713 10.704 134.665 8.01603 128.009 7.12003C126.985 6.99203 126.473 6.60803 126.473 5.45603V4.81603C126.473 3.53603 126.857 3.28003 127.625 3.28003C131.593 3.28003 135.945 3.92003 140.809 3.92003C145.161 3.92003 148.745 3.28003 151.945 3.28003C152.713 3.28003 153.097 3.53603 153.097 4.81603V5.45603C153.097 6.60803 152.713 6.99203 152.073 7.12003C146.569 7.76003 142.345 10.192 140.169 14.288L123.145 45.648L142.473 85.2C144.521 89.296 148.745 92.112 154.505 92.752C155.145 92.88 155.529 93.264 155.529 94.416V95.056C155.529 96.336 155.145 96.592 154.377 96.592C149.001 96.592 145.801 95.952 139.273 95.952C133.513 95.952 129.161 96.592 120.713 96.592Z"/>
<path d="M158.652 96.592C157.884 96.592 157.5 96.336 157.5 95.056V94.416C157.5 93.264 158.012 92.88 159.036 92.624C163.132 91.856 166.076 89.424 166.076 86.224V13.776C166.076 10.576 163.132 8.14403 159.036 7.37603C158.012 7.12003 157.5 6.73603 157.5 5.58403V4.94403C157.5 3.66403 157.884 3.40803 158.652 3.40803C163.9 3.40803 167.74 4.04803 172.348 4.04803C176.956 4.04803 181.052 3.40803 186.3 3.40803C187.068 3.40803 187.452 3.66403 187.452 4.94403V5.58403C187.452 6.73603 187.068 7.12003 186.428 7.24803C182.076 7.88803 178.876 10.448 178.876 13.776V86.224C178.876 89.552 182.076 92.112 186.428 92.752C187.068 92.88 187.452 93.264 187.452 94.416V95.056C187.452 96.336 187.068 96.592 186.3 96.592C181.052 96.592 176.956 95.952 172.348 95.952C167.74 95.952 163.9 96.592 158.652 96.592Z"/>
</mask>
<path d="M4.152 96.592C3.384 96.592 3 96.336 3 95.056V94.416C3 93.264 3.512 92.88 4.536 92.624C8.632 91.856 11.576 89.424 11.576 86.224V13.776C11.576 10.576 8.632 8.14403 4.536 7.37603C3.512 7.12003 3 6.73603 3 5.58403V4.94403C3 3.66403 3.384 3.40803 4.152 3.40803C9.4 3.40803 13.24 4.04803 17.848 4.04803C22.456 4.04803 26.552 3.40803 31.8 3.40803C32.568 3.40803 32.952 3.66403 32.952 4.94403V5.58403C32.952 6.73603 32.568 7.12003 31.928 7.24803C27.576 7.88803 24.376 10.448 24.376 13.776V46.032H55.736V13.776C55.736 10.576 52.792 8.14403 48.696 7.37603C47.672 7.12003 47.16 6.73603 47.16 5.58403V4.94403C47.16 3.66403 47.544 3.40803 48.312 3.40803C53.56 3.40803 57.4 4.04803 62.008 4.04803C66.616 4.04803 70.712 3.40803 75.96 3.40803C76.728 3.40803 77.112 3.66403 77.112 4.94403V5.58403C77.112 6.73603 76.728 7.12003 76.088 7.24803C71.736 7.88803 68.536 10.448 68.536 13.776V86.224C68.536 89.552 71.736 92.112 76.088 92.752C76.728 92.88 77.112 93.264 77.112 94.416V95.056C77.112 96.336 76.728 96.592 75.96 96.592C70.712 96.592 66.616 95.952 62.008 95.952C57.4 95.952 53.56 96.592 48.312 96.592C47.544 96.592 47.16 96.336 47.16 95.056V94.416C47.16 93.264 47.672 92.88 48.696 92.624C52.792 91.856 55.736 89.424 55.736 86.224V51.152H24.376V86.224C24.376 89.552 27.576 92.112 31.928 92.752C32.568 92.88 32.952 93.264 32.952 94.416V95.056C32.952 96.336 32.568 96.592 31.8 96.592C26.552 96.592 22.456 95.952 17.848 95.952C13.24 95.952 9.4 96.592 4.152 96.592Z" fill="black"/>
<path d="M120.713 96.592C119.945 96.592 119.561 96.336 119.561 95.056V94.416C119.561 93.264 120.073 92.88 121.097 92.752C129.545 91.856 130.313 89.168 128.521 85.456L114.057 56.144L98.953 84.816C96.649 89.168 98.697 91.856 106.633 92.752C107.657 92.88 108.169 93.264 108.169 94.416V95.056C108.169 96.336 107.785 96.592 107.017 96.592C101.769 96.592 97.417 95.952 92.553 95.952C88.201 95.952 84.617 96.592 80.137 96.592C79.369 96.592 78.985 96.336 78.985 95.056V94.416C78.985 93.264 79.369 92.88 80.009 92.752C86.793 92.112 91.017 89.68 93.193 85.584L111.625 51.28L92.809 13.392C91.145 10.064 87.561 7.63203 82.313 7.12003C81.673 6.99203 81.289 6.60803 81.289 5.45603V4.81603C81.289 3.53603 81.673 3.28003 82.441 3.28003C87.689 3.28003 90.889 3.92003 97.417 3.92003C103.945 3.92003 108.297 3.28003 115.465 3.28003C116.233 3.28003 116.617 3.53603 116.617 4.81603V5.45603C116.617 6.60803 116.105 6.99203 115.081 7.12003C107.785 8.01603 105.993 10.704 108.169 15.056L120.713 40.784L134.409 15.056C136.713 10.704 134.665 8.01603 128.009 7.12003C126.985 6.99203 126.473 6.60803 126.473 5.45603V4.81603C126.473 3.53603 126.857 3.28003 127.625 3.28003C131.593 3.28003 135.945 3.92003 140.809 3.92003C145.161 3.92003 148.745 3.28003 151.945 3.28003C152.713 3.28003 153.097 3.53603 153.097 4.81603V5.45603C153.097 6.60803 152.713 6.99203 152.073 7.12003C146.569 7.76003 142.345 10.192 140.169 14.288L123.145 45.648L142.473 85.2C144.521 89.296 148.745 92.112 154.505 92.752C155.145 92.88 155.529 93.264 155.529 94.416V95.056C155.529 96.336 155.145 96.592 154.377 96.592C149.001 96.592 145.801 95.952 139.273 95.952C133.513 95.952 129.161 96.592 120.713 96.592Z" fill="black"/>
<path d="M158.652 96.592C157.884 96.592 157.5 96.336 157.5 95.056V94.416C157.5 93.264 158.012 92.88 159.036 92.624C163.132 91.856 166.076 89.424 166.076 86.224V13.776C166.076 10.576 163.132 8.14403 159.036 7.37603C158.012 7.12003 157.5 6.73603 157.5 5.58403V4.94403C157.5 3.66403 157.884 3.40803 158.652 3.40803C163.9 3.40803 167.74 4.04803 172.348 4.04803C176.956 4.04803 181.052 3.40803 186.3 3.40803C187.068 3.40803 187.452 3.66403 187.452 4.94403V5.58403C187.452 6.73603 187.068 7.12003 186.428 7.24803C182.076 7.88803 178.876 10.448 178.876 13.776V86.224C178.876 89.552 182.076 92.112 186.428 92.752C187.068 92.88 187.452 93.264 187.452 94.416V95.056C187.452 96.336 187.068 96.592 186.3 96.592C181.052 96.592 176.956 95.952 172.348 95.952C167.74 95.952 163.9 96.592 158.652 96.592Z" fill="black"/>
<path d="M4.152 96.592C3.384 96.592 3 96.336 3 95.056V94.416C3 93.264 3.512 92.88 4.536 92.624C8.632 91.856 11.576 89.424 11.576 86.224V13.776C11.576 10.576 8.632 8.14403 4.536 7.37603C3.512 7.12003 3 6.73603 3 5.58403V4.94403C3 3.66403 3.384 3.40803 4.152 3.40803C9.4 3.40803 13.24 4.04803 17.848 4.04803C22.456 4.04803 26.552 3.40803 31.8 3.40803C32.568 3.40803 32.952 3.66403 32.952 4.94403V5.58403C32.952 6.73603 32.568 7.12003 31.928 7.24803C27.576 7.88803 24.376 10.448 24.376 13.776V46.032H55.736V13.776C55.736 10.576 52.792 8.14403 48.696 7.37603C47.672 7.12003 47.16 6.73603 47.16 5.58403V4.94403C47.16 3.66403 47.544 3.40803 48.312 3.40803C53.56 3.40803 57.4 4.04803 62.008 4.04803C66.616 4.04803 70.712 3.40803 75.96 3.40803C76.728 3.40803 77.112 3.66403 77.112 4.94403V5.58403C77.112 6.73603 76.728 7.12003 76.088 7.24803C71.736 7.88803 68.536 10.448 68.536 13.776V86.224C68.536 89.552 71.736 92.112 76.088 92.752C76.728 92.88 77.112 93.264 77.112 94.416V95.056C77.112 96.336 76.728 96.592 75.96 96.592C70.712 96.592 66.616 95.952 62.008 95.952C57.4 95.952 53.56 96.592 48.312 96.592C47.544 96.592 47.16 96.336 47.16 95.056V94.416C47.16 93.264 47.672 92.88 48.696 92.624C52.792 91.856 55.736 89.424 55.736 86.224V51.152H24.376V86.224C24.376 89.552 27.576 92.112 31.928 92.752C32.568 92.88 32.952 93.264 32.952 94.416V95.056C32.952 96.336 32.568 96.592 31.8 96.592C26.552 96.592 22.456 95.952 17.848 95.952C13.24 95.952 9.4 96.592 4.152 96.592Z" stroke="black" stroke-width="5" mask="url(#path-1-outside-1_1230_1117)"/>
<path d="M120.713 96.592C119.945 96.592 119.561 96.336 119.561 95.056V94.416C119.561 93.264 120.073 92.88 121.097 92.752C129.545 91.856 130.313 89.168 128.521 85.456L114.057 56.144L98.953 84.816C96.649 89.168 98.697 91.856 106.633 92.752C107.657 92.88 108.169 93.264 108.169 94.416V95.056C108.169 96.336 107.785 96.592 107.017 96.592C101.769 96.592 97.417 95.952 92.553 95.952C88.201 95.952 84.617 96.592 80.137 96.592C79.369 96.592 78.985 96.336 78.985 95.056V94.416C78.985 93.264 79.369 92.88 80.009 92.752C86.793 92.112 91.017 89.68 93.193 85.584L111.625 51.28L92.809 13.392C91.145 10.064 87.561 7.63203 82.313 7.12003C81.673 6.99203 81.289 6.60803 81.289 5.45603V4.81603C81.289 3.53603 81.673 3.28003 82.441 3.28003C87.689 3.28003 90.889 3.92003 97.417 3.92003C103.945 3.92003 108.297 3.28003 115.465 3.28003C116.233 3.28003 116.617 3.53603 116.617 4.81603V5.45603C116.617 6.60803 116.105 6.99203 115.081 7.12003C107.785 8.01603 105.993 10.704 108.169 15.056L120.713 40.784L134.409 15.056C136.713 10.704 134.665 8.01603 128.009 7.12003C126.985 6.99203 126.473 6.60803 126.473 5.45603V4.81603C126.473 3.53603 126.857 3.28003 127.625 3.28003C131.593 3.28003 135.945 3.92003 140.809 3.92003C145.161 3.92003 148.745 3.28003 151.945 3.28003C152.713 3.28003 153.097 3.53603 153.097 4.81603V5.45603C153.097 6.60803 152.713 6.99203 152.073 7.12003C146.569 7.76003 142.345 10.192 140.169 14.288L123.145 45.648L142.473 85.2C144.521 89.296 148.745 92.112 154.505 92.752C155.145 92.88 155.529 93.264 155.529 94.416V95.056C155.529 96.336 155.145 96.592 154.377 96.592C149.001 96.592 145.801 95.952 139.273 95.952C133.513 95.952 129.161 96.592 120.713 96.592Z" stroke="black" stroke-width="5" mask="url(#path-1-outside-1_1230_1117)"/>
<path d="M158.652 96.592C157.884 96.592 157.5 96.336 157.5 95.056V94.416C157.5 93.264 158.012 92.88 159.036 92.624C163.132 91.856 166.076 89.424 166.076 86.224V13.776C166.076 10.576 163.132 8.14403 159.036 7.37603C158.012 7.12003 157.5 6.73603 157.5 5.58403V4.94403C157.5 3.66403 157.884 3.40803 158.652 3.40803C163.9 3.40803 167.74 4.04803 172.348 4.04803C176.956 4.04803 181.052 3.40803 186.3 3.40803C187.068 3.40803 187.452 3.66403 187.452 4.94403V5.58403C187.452 6.73603 187.068 7.12003 186.428 7.24803C182.076 7.88803 178.876 10.448 178.876 13.776V86.224C178.876 89.552 182.076 92.112 186.428 92.752C187.068 92.88 187.452 93.264 187.452 94.416V95.056C187.452 96.336 187.068 96.592 186.3 96.592C181.052 96.592 176.956 95.952 172.348 95.952C167.74 95.952 163.9 96.592 158.652 96.592Z" stroke="black" stroke-width="5" mask="url(#path-1-outside-1_1230_1117)"/>
<mask id="path-2-outside-2_1230_1117" maskUnits="userSpaceOnUse" x="1" y="103" width="270" height="103" fill="black">
<rect fill="white" x="1" y="103" width="270" height="103"/>
<path d="M5.152 200.592C4.384 200.592 4 200.336 4 199.056V198.416C4 197.264 4.512 196.88 5.536 196.624C9.632 195.856 12.576 193.424 12.576 190.224V117.776C12.576 114.576 9.632 112.144 5.536 111.376C4.512 111.12 4 110.736 4 109.584V108.944C4 107.664 4.384 107.408 5.152 107.408C10.4 107.408 14.24 108.048 18.848 108.048C23.456 108.048 27.552 107.408 32.8 107.408C33.568 107.408 33.952 107.664 33.952 108.944V109.584C33.952 110.736 33.568 111.12 32.928 111.248C28.576 111.888 25.376 114.448 25.376 117.776V190.224C25.376 193.552 28.576 195.728 32.288 195.728H36.384C52.128 195.728 58.272 192.272 60.576 179.472C60.704 178.448 61.344 177.936 61.984 177.936H63.008C63.648 177.936 64.16 178.448 64.16 179.088V196.496C64.16 199.696 63.392 200.592 58.656 200.592C47.264 200.464 41.504 200.208 32.288 200.208C18.336 200.208 9.504 200.592 5.152 200.592Z"/>
<path d="M67.262 200.592C66.494 200.592 66.11 200.336 66.11 199.056V198.416C66.11 197.264 66.494 196.88 67.134 196.752C72.51 196.112 75.838 194.064 77.118 190.096L102.206 108.688C102.462 107.92 102.974 107.408 103.87 107.408H105.406C106.302 107.408 106.814 107.92 107.07 108.688L132.798 190.224C134.078 194.064 137.406 196.112 142.654 196.624C143.294 196.752 143.678 197.136 143.678 198.288V198.928C143.678 200.208 143.294 200.464 142.526 200.464C135.998 200.464 131.518 199.824 126.27 199.824C120.766 199.824 116.926 200.464 108.478 200.464C107.71 200.464 107.326 200.208 107.326 198.928V198.288C107.326 197.136 107.838 196.752 108.862 196.624C115.902 195.728 118.974 193.552 117.822 189.584L111.294 166.672H89.79L83.518 188.816C82.238 193.424 84.67 195.856 91.966 196.752C92.99 196.88 93.502 197.264 93.502 198.416V199.056C93.502 200.336 93.118 200.592 92.35 200.592C86.462 200.592 81.982 199.952 78.398 199.952C75.326 199.952 71.742 200.592 67.262 200.592ZM91.198 161.808H109.886L100.542 128.784L91.198 161.808Z"/>
<path d="M174.553 200.592C170.969 200.592 167.769 200.336 163.417 200.336C155.353 200.336 149.849 200.592 146.777 200.592C146.009 200.592 145.625 200.336 145.625 199.056V198.416C145.625 197.264 146.137 196.88 147.161 196.624C151.257 195.856 154.201 193.424 154.201 190.224V117.776C154.201 114.576 151.257 112.144 147.161 111.376C146.137 111.12 145.625 110.736 145.625 109.584V108.944C145.625 107.664 146.009 107.408 146.777 107.408C149.849 107.408 154.969 107.536 162.521 107.664C168.537 107.536 172.121 107.408 177.625 107.408C193.241 107.408 204.249 117.904 204.249 131.6C204.249 140.176 200.537 147.472 190.169 151.312C203.097 155.152 209.497 163.6 209.497 175.376C209.497 190.352 197.209 200.592 174.553 200.592ZM167.001 190.224C167.001 193.552 170.201 195.728 173.913 195.728H177.753C189.145 195.728 195.417 189.328 195.417 176.912C195.417 159.632 189.017 154.768 171.865 154.256L167.001 154.128V190.224ZM167.001 149.52C170.201 149.776 172.761 149.904 174.425 149.904C186.073 149.904 190.169 143.504 190.169 132.752C190.169 119.056 183.641 112.272 175.449 112.272H173.913C170.201 112.272 167.001 114.448 167.001 117.776V149.52Z"/>
<path d="M240.654 202.512C230.542 202.512 218.254 199.056 215.694 196.752C214.414 195.6 214.03 194.448 214.03 192.656V172.432C214.03 171.536 214.67 170.896 215.566 170.896H216.462C217.358 170.896 217.998 171.28 218.254 172.176C222.35 189.584 231.438 197.648 242.574 197.648C251.662 197.648 256.91 190.352 256.91 182.672C256.91 160.528 215.054 151.312 215.054 127.888C215.054 115.088 224.654 106 240.142 106C248.718 106 257.422 108.56 260.75 111.376C262.03 112.528 262.414 113.68 262.414 115.472V131.216C262.414 132.112 261.774 132.752 260.878 132.752H259.854C258.958 132.752 258.318 132.368 258.062 131.472C253.71 116.368 245.39 110.864 237.582 110.864C231.822 110.864 227.086 115.984 227.086 123.28C227.086 143.248 267.918 150.8 267.918 177.808C267.918 192.144 259.342 202.512 240.654 202.512Z"/>
</mask>
<path d="M5.152 200.592C4.384 200.592 4 200.336 4 199.056V198.416C4 197.264 4.512 196.88 5.536 196.624C9.632 195.856 12.576 193.424 12.576 190.224V117.776C12.576 114.576 9.632 112.144 5.536 111.376C4.512 111.12 4 110.736 4 109.584V108.944C4 107.664 4.384 107.408 5.152 107.408C10.4 107.408 14.24 108.048 18.848 108.048C23.456 108.048 27.552 107.408 32.8 107.408C33.568 107.408 33.952 107.664 33.952 108.944V109.584C33.952 110.736 33.568 111.12 32.928 111.248C28.576 111.888 25.376 114.448 25.376 117.776V190.224C25.376 193.552 28.576 195.728 32.288 195.728H36.384C52.128 195.728 58.272 192.272 60.576 179.472C60.704 178.448 61.344 177.936 61.984 177.936H63.008C63.648 177.936 64.16 178.448 64.16 179.088V196.496C64.16 199.696 63.392 200.592 58.656 200.592C47.264 200.464 41.504 200.208 32.288 200.208C18.336 200.208 9.504 200.592 5.152 200.592Z" fill="#737373"/>
<path d="M67.262 200.592C66.494 200.592 66.11 200.336 66.11 199.056V198.416C66.11 197.264 66.494 196.88 67.134 196.752C72.51 196.112 75.838 194.064 77.118 190.096L102.206 108.688C102.462 107.92 102.974 107.408 103.87 107.408H105.406C106.302 107.408 106.814 107.92 107.07 108.688L132.798 190.224C134.078 194.064 137.406 196.112 142.654 196.624C143.294 196.752 143.678 197.136 143.678 198.288V198.928C143.678 200.208 143.294 200.464 142.526 200.464C135.998 200.464 131.518 199.824 126.27 199.824C120.766 199.824 116.926 200.464 108.478 200.464C107.71 200.464 107.326 200.208 107.326 198.928V198.288C107.326 197.136 107.838 196.752 108.862 196.624C115.902 195.728 118.974 193.552 117.822 189.584L111.294 166.672H89.79L83.518 188.816C82.238 193.424 84.67 195.856 91.966 196.752C92.99 196.88 93.502 197.264 93.502 198.416V199.056C93.502 200.336 93.118 200.592 92.35 200.592C86.462 200.592 81.982 199.952 78.398 199.952C75.326 199.952 71.742 200.592 67.262 200.592ZM91.198 161.808H109.886L100.542 128.784L91.198 161.808Z" fill="#737373"/>
<path d="M174.553 200.592C170.969 200.592 167.769 200.336 163.417 200.336C155.353 200.336 149.849 200.592 146.777 200.592C146.009 200.592 145.625 200.336 145.625 199.056V198.416C145.625 197.264 146.137 196.88 147.161 196.624C151.257 195.856 154.201 193.424 154.201 190.224V117.776C154.201 114.576 151.257 112.144 147.161 111.376C146.137 111.12 145.625 110.736 145.625 109.584V108.944C145.625 107.664 146.009 107.408 146.777 107.408C149.849 107.408 154.969 107.536 162.521 107.664C168.537 107.536 172.121 107.408 177.625 107.408C193.241 107.408 204.249 117.904 204.249 131.6C204.249 140.176 200.537 147.472 190.169 151.312C203.097 155.152 209.497 163.6 209.497 175.376C209.497 190.352 197.209 200.592 174.553 200.592ZM167.001 190.224C167.001 193.552 170.201 195.728 173.913 195.728H177.753C189.145 195.728 195.417 189.328 195.417 176.912C195.417 159.632 189.017 154.768 171.865 154.256L167.001 154.128V190.224ZM167.001 149.52C170.201 149.776 172.761 149.904 174.425 149.904C186.073 149.904 190.169 143.504 190.169 132.752C190.169 119.056 183.641 112.272 175.449 112.272H173.913C170.201 112.272 167.001 114.448 167.001 117.776V149.52Z" fill="#737373"/>
<path d="M240.654 202.512C230.542 202.512 218.254 199.056 215.694 196.752C214.414 195.6 214.03 194.448 214.03 192.656V172.432C214.03 171.536 214.67 170.896 215.566 170.896H216.462C217.358 170.896 217.998 171.28 218.254 172.176C222.35 189.584 231.438 197.648 242.574 197.648C251.662 197.648 256.91 190.352 256.91 182.672C256.91 160.528 215.054 151.312 215.054 127.888C215.054 115.088 224.654 106 240.142 106C248.718 106 257.422 108.56 260.75 111.376C262.03 112.528 262.414 113.68 262.414 115.472V131.216C262.414 132.112 261.774 132.752 260.878 132.752H259.854C258.958 132.752 258.318 132.368 258.062 131.472C253.71 116.368 245.39 110.864 237.582 110.864C231.822 110.864 227.086 115.984 227.086 123.28C227.086 143.248 267.918 150.8 267.918 177.808C267.918 192.144 259.342 202.512 240.654 202.512Z" fill="#737373"/>
<path d="M5.152 200.592C4.384 200.592 4 200.336 4 199.056V198.416C4 197.264 4.512 196.88 5.536 196.624C9.632 195.856 12.576 193.424 12.576 190.224V117.776C12.576 114.576 9.632 112.144 5.536 111.376C4.512 111.12 4 110.736 4 109.584V108.944C4 107.664 4.384 107.408 5.152 107.408C10.4 107.408 14.24 108.048 18.848 108.048C23.456 108.048 27.552 107.408 32.8 107.408C33.568 107.408 33.952 107.664 33.952 108.944V109.584C33.952 110.736 33.568 111.12 32.928 111.248C28.576 111.888 25.376 114.448 25.376 117.776V190.224C25.376 193.552 28.576 195.728 32.288 195.728H36.384C52.128 195.728 58.272 192.272 60.576 179.472C60.704 178.448 61.344 177.936 61.984 177.936H63.008C63.648 177.936 64.16 178.448 64.16 179.088V196.496C64.16 199.696 63.392 200.592 58.656 200.592C47.264 200.464 41.504 200.208 32.288 200.208C18.336 200.208 9.504 200.592 5.152 200.592Z" stroke="#737373" stroke-width="5" mask="url(#path-2-outside-2_1230_1117)"/>
<path d="M67.262 200.592C66.494 200.592 66.11 200.336 66.11 199.056V198.416C66.11 197.264 66.494 196.88 67.134 196.752C72.51 196.112 75.838 194.064 77.118 190.096L102.206 108.688C102.462 107.92 102.974 107.408 103.87 107.408H105.406C106.302 107.408 106.814 107.92 107.07 108.688L132.798 190.224C134.078 194.064 137.406 196.112 142.654 196.624C143.294 196.752 143.678 197.136 143.678 198.288V198.928C143.678 200.208 143.294 200.464 142.526 200.464C135.998 200.464 131.518 199.824 126.27 199.824C120.766 199.824 116.926 200.464 108.478 200.464C107.71 200.464 107.326 200.208 107.326 198.928V198.288C107.326 197.136 107.838 196.752 108.862 196.624C115.902 195.728 118.974 193.552 117.822 189.584L111.294 166.672H89.79L83.518 188.816C82.238 193.424 84.67 195.856 91.966 196.752C92.99 196.88 93.502 197.264 93.502 198.416V199.056C93.502 200.336 93.118 200.592 92.35 200.592C86.462 200.592 81.982 199.952 78.398 199.952C75.326 199.952 71.742 200.592 67.262 200.592ZM91.198 161.808H109.886L100.542 128.784L91.198 161.808Z" stroke="#737373" stroke-width="5" mask="url(#path-2-outside-2_1230_1117)"/>
<path d="M174.553 200.592C170.969 200.592 167.769 200.336 163.417 200.336C155.353 200.336 149.849 200.592 146.777 200.592C146.009 200.592 145.625 200.336 145.625 199.056V198.416C145.625 197.264 146.137 196.88 147.161 196.624C151.257 195.856 154.201 193.424 154.201 190.224V117.776C154.201 114.576 151.257 112.144 147.161 111.376C146.137 111.12 145.625 110.736 145.625 109.584V108.944C145.625 107.664 146.009 107.408 146.777 107.408C149.849 107.408 154.969 107.536 162.521 107.664C168.537 107.536 172.121 107.408 177.625 107.408C193.241 107.408 204.249 117.904 204.249 131.6C204.249 140.176 200.537 147.472 190.169 151.312C203.097 155.152 209.497 163.6 209.497 175.376C209.497 190.352 197.209 200.592 174.553 200.592ZM167.001 190.224C167.001 193.552 170.201 195.728 173.913 195.728H177.753C189.145 195.728 195.417 189.328 195.417 176.912C195.417 159.632 189.017 154.768 171.865 154.256L167.001 154.128V190.224ZM167.001 149.52C170.201 149.776 172.761 149.904 174.425 149.904C186.073 149.904 190.169 143.504 190.169 132.752C190.169 119.056 183.641 112.272 175.449 112.272H173.913C170.201 112.272 167.001 114.448 167.001 117.776V149.52Z" stroke="#737373" stroke-width="5" mask="url(#path-2-outside-2_1230_1117)"/>
<path d="M240.654 202.512C230.542 202.512 218.254 199.056 215.694 196.752C214.414 195.6 214.03 194.448 214.03 192.656V172.432C214.03 171.536 214.67 170.896 215.566 170.896H216.462C217.358 170.896 217.998 171.28 218.254 172.176C222.35 189.584 231.438 197.648 242.574 197.648C251.662 197.648 256.91 190.352 256.91 182.672C256.91 160.528 215.054 151.312 215.054 127.888C215.054 115.088 224.654 106 240.142 106C248.718 106 257.422 108.56 260.75 111.376C262.03 112.528 262.414 113.68 262.414 115.472V131.216C262.414 132.112 261.774 132.752 260.878 132.752H259.854C258.958 132.752 258.318 132.368 258.062 131.472C253.71 116.368 245.39 110.864 237.582 110.864C231.822 110.864 227.086 115.984 227.086 123.28C227.086 143.248 267.918 150.8 267.918 177.808C267.918 192.144 259.342 202.512 240.654 202.512Z" stroke="#737373" stroke-width="5" mask="url(#path-2-outside-2_1230_1117)"/>
</svg>
