<svg width="474" height="103" viewBox="0 0 474 103" fill="none" xmlns="http://www.w3.org/2000/svg">
<mask id="path-1-outside-1_1230_1116" maskUnits="userSpaceOnUse" x="0.279297" y="1.68799" width="190" height="99" fill="black">
<rect fill="white" x="0.279297" y="1.68799" width="190" height="99"/>
<path d="M4.4313 98C3.6633 98 3.2793 97.744 3.2793 96.464V95.824C3.2793 94.672 3.7913 94.288 4.8153 94.032C8.9113 93.264 11.8553 90.832 11.8553 87.632V15.184C11.8553 11.984 8.9113 9.55199 4.8153 8.78399C3.7913 8.52798 3.2793 8.14399 3.2793 6.99199V6.35199C3.2793 5.07199 3.6633 4.81599 4.4313 4.81599C9.6793 4.81599 13.5193 5.45599 18.1273 5.45599C22.7353 5.45599 26.8313 4.81599 32.0793 4.81599C32.8473 4.81599 33.2313 5.07199 33.2313 6.35199V6.99199C33.2313 8.14399 32.8473 8.52798 32.2073 8.65599C27.8553 9.29599 24.6553 11.856 24.6553 15.184V47.44H56.0153V15.184C56.0153 11.984 53.0713 9.55199 48.9753 8.78399C47.9513 8.52798 47.4393 8.14399 47.4393 6.99199V6.35199C47.4393 5.07199 47.8233 4.81599 48.5913 4.81599C53.8393 4.81599 57.6793 5.45599 62.2873 5.45599C66.8953 5.45599 70.9913 4.81599 76.2393 4.81599C77.0073 4.81599 77.3913 5.07199 77.3913 6.35199V6.99199C77.3913 8.14399 77.0073 8.52798 76.3673 8.65599C72.0153 9.29599 68.8153 11.856 68.8153 15.184V87.632C68.8153 90.96 72.0153 93.52 76.3673 94.16C77.0073 94.288 77.3913 94.672 77.3913 95.824V96.464C77.3913 97.744 77.0073 98 76.2393 98C70.9913 98 66.8953 97.36 62.2873 97.36C57.6793 97.36 53.8393 98 48.5913 98C47.8233 98 47.4393 97.744 47.4393 96.464V95.824C47.4393 94.672 47.9513 94.288 48.9753 94.032C53.0713 93.264 56.0153 90.832 56.0153 87.632V52.56H24.6553V87.632C24.6553 90.96 27.8553 93.52 32.2073 94.16C32.8473 94.288 33.2313 94.672 33.2313 95.824V96.464C33.2313 97.744 32.8473 98 32.0793 98C26.8313 98 22.7353 97.36 18.1273 97.36C13.5193 97.36 9.6793 98 4.4313 98Z"/>
<path d="M120.992 98C120.224 98 119.84 97.744 119.84 96.464V95.824C119.84 94.672 120.352 94.288 121.376 94.16C129.824 93.264 130.592 90.576 128.8 86.864L114.336 57.552L99.2323 86.224C96.9283 90.576 98.9763 93.264 106.912 94.16C107.936 94.288 108.448 94.672 108.448 95.824V96.464C108.448 97.744 108.064 98 107.296 98C102.048 98 97.6963 97.36 92.8323 97.36C88.4803 97.36 84.8963 98 80.4163 98C79.6483 98 79.2643 97.744 79.2643 96.464V95.824C79.2643 94.672 79.6483 94.288 80.2883 94.16C87.0723 93.52 91.2963 91.088 93.4723 86.992L111.904 52.688L93.0883 14.8C91.4243 11.472 87.8403 9.03999 82.5923 8.52798C81.9523 8.39999 81.5683 8.01599 81.5683 6.86399V6.22399C81.5683 4.94398 81.9523 4.68799 82.7203 4.68799C87.9683 4.68799 91.1683 5.32799 97.6963 5.32799C104.224 5.32799 108.576 4.68799 115.744 4.68799C116.512 4.68799 116.896 4.94398 116.896 6.22399V6.86399C116.896 8.01599 116.384 8.39999 115.36 8.52798C108.064 9.42399 106.272 12.112 108.448 16.464L120.992 42.192L134.688 16.464C136.992 12.112 134.944 9.42399 128.288 8.52798C127.264 8.39999 126.752 8.01599 126.752 6.86399V6.22399C126.752 4.94398 127.136 4.68799 127.904 4.68799C131.872 4.68799 136.224 5.32799 141.088 5.32799C145.44 5.32799 149.024 4.68799 152.224 4.68799C152.992 4.68799 153.376 4.94398 153.376 6.22399V6.86399C153.376 8.01599 152.992 8.39999 152.352 8.52798C146.848 9.16799 142.624 11.6 140.448 15.696L123.424 47.056L142.752 86.608C144.8 90.704 149.024 93.52 154.784 94.16C155.424 94.288 155.808 94.672 155.808 95.824V96.464C155.808 97.744 155.424 98 154.656 98C149.28 98 146.08 97.36 139.552 97.36C133.792 97.36 129.44 98 120.992 98Z"/>
<path d="M158.931 98C158.163 98 157.779 97.744 157.779 96.464V95.824C157.779 94.672 158.291 94.288 159.315 94.032C163.411 93.264 166.355 90.832 166.355 87.632V15.184C166.355 11.984 163.411 9.55199 159.315 8.78399C158.291 8.52798 157.779 8.14399 157.779 6.99199V6.35199C157.779 5.07199 158.163 4.81599 158.931 4.81599C164.179 4.81599 168.019 5.45599 172.627 5.45599C177.235 5.45599 181.331 4.81599 186.579 4.81599C187.347 4.81599 187.731 5.07199 187.731 6.35199V6.99199C187.731 8.14399 187.347 8.52798 186.707 8.65599C182.355 9.29599 179.155 11.856 179.155 15.184V87.632C179.155 90.96 182.355 93.52 186.707 94.16C187.347 94.288 187.731 94.672 187.731 95.824V96.464C187.731 97.744 187.347 98 186.579 98C181.331 98 177.235 97.36 172.627 97.36C168.019 97.36 164.179 98 158.931 98Z"/>
</mask>
<path d="M4.4313 98C3.6633 98 3.2793 97.744 3.2793 96.464V95.824C3.2793 94.672 3.7913 94.288 4.8153 94.032C8.9113 93.264 11.8553 90.832 11.8553 87.632V15.184C11.8553 11.984 8.9113 9.55199 4.8153 8.78399C3.7913 8.52798 3.2793 8.14399 3.2793 6.99199V6.35199C3.2793 5.07199 3.6633 4.81599 4.4313 4.81599C9.6793 4.81599 13.5193 5.45599 18.1273 5.45599C22.7353 5.45599 26.8313 4.81599 32.0793 4.81599C32.8473 4.81599 33.2313 5.07199 33.2313 6.35199V6.99199C33.2313 8.14399 32.8473 8.52798 32.2073 8.65599C27.8553 9.29599 24.6553 11.856 24.6553 15.184V47.44H56.0153V15.184C56.0153 11.984 53.0713 9.55199 48.9753 8.78399C47.9513 8.52798 47.4393 8.14399 47.4393 6.99199V6.35199C47.4393 5.07199 47.8233 4.81599 48.5913 4.81599C53.8393 4.81599 57.6793 5.45599 62.2873 5.45599C66.8953 5.45599 70.9913 4.81599 76.2393 4.81599C77.0073 4.81599 77.3913 5.07199 77.3913 6.35199V6.99199C77.3913 8.14399 77.0073 8.52798 76.3673 8.65599C72.0153 9.29599 68.8153 11.856 68.8153 15.184V87.632C68.8153 90.96 72.0153 93.52 76.3673 94.16C77.0073 94.288 77.3913 94.672 77.3913 95.824V96.464C77.3913 97.744 77.0073 98 76.2393 98C70.9913 98 66.8953 97.36 62.2873 97.36C57.6793 97.36 53.8393 98 48.5913 98C47.8233 98 47.4393 97.744 47.4393 96.464V95.824C47.4393 94.672 47.9513 94.288 48.9753 94.032C53.0713 93.264 56.0153 90.832 56.0153 87.632V52.56H24.6553V87.632C24.6553 90.96 27.8553 93.52 32.2073 94.16C32.8473 94.288 33.2313 94.672 33.2313 95.824V96.464C33.2313 97.744 32.8473 98 32.0793 98C26.8313 98 22.7353 97.36 18.1273 97.36C13.5193 97.36 9.6793 98 4.4313 98Z" fill="black"/>
<path d="M120.992 98C120.224 98 119.84 97.744 119.84 96.464V95.824C119.84 94.672 120.352 94.288 121.376 94.16C129.824 93.264 130.592 90.576 128.8 86.864L114.336 57.552L99.2323 86.224C96.9283 90.576 98.9763 93.264 106.912 94.16C107.936 94.288 108.448 94.672 108.448 95.824V96.464C108.448 97.744 108.064 98 107.296 98C102.048 98 97.6963 97.36 92.8323 97.36C88.4803 97.36 84.8963 98 80.4163 98C79.6483 98 79.2643 97.744 79.2643 96.464V95.824C79.2643 94.672 79.6483 94.288 80.2883 94.16C87.0723 93.52 91.2963 91.088 93.4723 86.992L111.904 52.688L93.0883 14.8C91.4243 11.472 87.8403 9.03999 82.5923 8.52798C81.9523 8.39999 81.5683 8.01599 81.5683 6.86399V6.22399C81.5683 4.94398 81.9523 4.68799 82.7203 4.68799C87.9683 4.68799 91.1683 5.32799 97.6963 5.32799C104.224 5.32799 108.576 4.68799 115.744 4.68799C116.512 4.68799 116.896 4.94398 116.896 6.22399V6.86399C116.896 8.01599 116.384 8.39999 115.36 8.52798C108.064 9.42399 106.272 12.112 108.448 16.464L120.992 42.192L134.688 16.464C136.992 12.112 134.944 9.42399 128.288 8.52798C127.264 8.39999 126.752 8.01599 126.752 6.86399V6.22399C126.752 4.94398 127.136 4.68799 127.904 4.68799C131.872 4.68799 136.224 5.32799 141.088 5.32799C145.44 5.32799 149.024 4.68799 152.224 4.68799C152.992 4.68799 153.376 4.94398 153.376 6.22399V6.86399C153.376 8.01599 152.992 8.39999 152.352 8.52798C146.848 9.16799 142.624 11.6 140.448 15.696L123.424 47.056L142.752 86.608C144.8 90.704 149.024 93.52 154.784 94.16C155.424 94.288 155.808 94.672 155.808 95.824V96.464C155.808 97.744 155.424 98 154.656 98C149.28 98 146.08 97.36 139.552 97.36C133.792 97.36 129.44 98 120.992 98Z" fill="black"/>
<path d="M158.931 98C158.163 98 157.779 97.744 157.779 96.464V95.824C157.779 94.672 158.291 94.288 159.315 94.032C163.411 93.264 166.355 90.832 166.355 87.632V15.184C166.355 11.984 163.411 9.55199 159.315 8.78399C158.291 8.52798 157.779 8.14399 157.779 6.99199V6.35199C157.779 5.07199 158.163 4.81599 158.931 4.81599C164.179 4.81599 168.019 5.45599 172.627 5.45599C177.235 5.45599 181.331 4.81599 186.579 4.81599C187.347 4.81599 187.731 5.07199 187.731 6.35199V6.99199C187.731 8.14399 187.347 8.52798 186.707 8.65599C182.355 9.29599 179.155 11.856 179.155 15.184V87.632C179.155 90.96 182.355 93.52 186.707 94.16C187.347 94.288 187.731 94.672 187.731 95.824V96.464C187.731 97.744 187.347 98 186.579 98C181.331 98 177.235 97.36 172.627 97.36C168.019 97.36 164.179 98 158.931 98Z" fill="black"/>
<path d="M4.4313 98C3.6633 98 3.2793 97.744 3.2793 96.464V95.824C3.2793 94.672 3.7913 94.288 4.8153 94.032C8.9113 93.264 11.8553 90.832 11.8553 87.632V15.184C11.8553 11.984 8.9113 9.55199 4.8153 8.78399C3.7913 8.52798 3.2793 8.14399 3.2793 6.99199V6.35199C3.2793 5.07199 3.6633 4.81599 4.4313 4.81599C9.6793 4.81599 13.5193 5.45599 18.1273 5.45599C22.7353 5.45599 26.8313 4.81599 32.0793 4.81599C32.8473 4.81599 33.2313 5.07199 33.2313 6.35199V6.99199C33.2313 8.14399 32.8473 8.52798 32.2073 8.65599C27.8553 9.29599 24.6553 11.856 24.6553 15.184V47.44H56.0153V15.184C56.0153 11.984 53.0713 9.55199 48.9753 8.78399C47.9513 8.52798 47.4393 8.14399 47.4393 6.99199V6.35199C47.4393 5.07199 47.8233 4.81599 48.5913 4.81599C53.8393 4.81599 57.6793 5.45599 62.2873 5.45599C66.8953 5.45599 70.9913 4.81599 76.2393 4.81599C77.0073 4.81599 77.3913 5.07199 77.3913 6.35199V6.99199C77.3913 8.14399 77.0073 8.52798 76.3673 8.65599C72.0153 9.29599 68.8153 11.856 68.8153 15.184V87.632C68.8153 90.96 72.0153 93.52 76.3673 94.16C77.0073 94.288 77.3913 94.672 77.3913 95.824V96.464C77.3913 97.744 77.0073 98 76.2393 98C70.9913 98 66.8953 97.36 62.2873 97.36C57.6793 97.36 53.8393 98 48.5913 98C47.8233 98 47.4393 97.744 47.4393 96.464V95.824C47.4393 94.672 47.9513 94.288 48.9753 94.032C53.0713 93.264 56.0153 90.832 56.0153 87.632V52.56H24.6553V87.632C24.6553 90.96 27.8553 93.52 32.2073 94.16C32.8473 94.288 33.2313 94.672 33.2313 95.824V96.464C33.2313 97.744 32.8473 98 32.0793 98C26.8313 98 22.7353 97.36 18.1273 97.36C13.5193 97.36 9.6793 98 4.4313 98Z" stroke="black" stroke-width="5" mask="url(#path-1-outside-1_1230_1116)"/>
<path d="M120.992 98C120.224 98 119.84 97.744 119.84 96.464V95.824C119.84 94.672 120.352 94.288 121.376 94.16C129.824 93.264 130.592 90.576 128.8 86.864L114.336 57.552L99.2323 86.224C96.9283 90.576 98.9763 93.264 106.912 94.16C107.936 94.288 108.448 94.672 108.448 95.824V96.464C108.448 97.744 108.064 98 107.296 98C102.048 98 97.6963 97.36 92.8323 97.36C88.4803 97.36 84.8963 98 80.4163 98C79.6483 98 79.2643 97.744 79.2643 96.464V95.824C79.2643 94.672 79.6483 94.288 80.2883 94.16C87.0723 93.52 91.2963 91.088 93.4723 86.992L111.904 52.688L93.0883 14.8C91.4243 11.472 87.8403 9.03999 82.5923 8.52798C81.9523 8.39999 81.5683 8.01599 81.5683 6.86399V6.22399C81.5683 4.94398 81.9523 4.68799 82.7203 4.68799C87.9683 4.68799 91.1683 5.32799 97.6963 5.32799C104.224 5.32799 108.576 4.68799 115.744 4.68799C116.512 4.68799 116.896 4.94398 116.896 6.22399V6.86399C116.896 8.01599 116.384 8.39999 115.36 8.52798C108.064 9.42399 106.272 12.112 108.448 16.464L120.992 42.192L134.688 16.464C136.992 12.112 134.944 9.42399 128.288 8.52798C127.264 8.39999 126.752 8.01599 126.752 6.86399V6.22399C126.752 4.94398 127.136 4.68799 127.904 4.68799C131.872 4.68799 136.224 5.32799 141.088 5.32799C145.44 5.32799 149.024 4.68799 152.224 4.68799C152.992 4.68799 153.376 4.94398 153.376 6.22399V6.86399C153.376 8.01599 152.992 8.39999 152.352 8.52798C146.848 9.16799 142.624 11.6 140.448 15.696L123.424 47.056L142.752 86.608C144.8 90.704 149.024 93.52 154.784 94.16C155.424 94.288 155.808 94.672 155.808 95.824V96.464C155.808 97.744 155.424 98 154.656 98C149.28 98 146.08 97.36 139.552 97.36C133.792 97.36 129.44 98 120.992 98Z" stroke="black" stroke-width="5" mask="url(#path-1-outside-1_1230_1116)"/>
<path d="M158.931 98C158.163 98 157.779 97.744 157.779 96.464V95.824C157.779 94.672 158.291 94.288 159.315 94.032C163.411 93.264 166.355 90.832 166.355 87.632V15.184C166.355 11.984 163.411 9.55199 159.315 8.78399C158.291 8.52798 157.779 8.14399 157.779 6.99199V6.35199C157.779 5.07199 158.163 4.81599 158.931 4.81599C164.179 4.81599 168.019 5.45599 172.627 5.45599C177.235 5.45599 181.331 4.81599 186.579 4.81599C187.347 4.81599 187.731 5.07199 187.731 6.35199V6.99199C187.731 8.14399 187.347 8.52798 186.707 8.65599C182.355 9.29599 179.155 11.856 179.155 15.184V87.632C179.155 90.96 182.355 93.52 186.707 94.16C187.347 94.288 187.731 94.672 187.731 95.824V96.464C187.731 97.744 187.347 98 186.579 98C181.331 98 177.235 97.36 172.627 97.36C168.019 97.36 164.179 98 158.931 98Z" stroke="black" stroke-width="5" mask="url(#path-1-outside-1_1230_1116)"/>
<mask id="path-2-outside-2_1230_1116" maskUnits="userSpaceOnUse" x="203.717" y="0.407959" width="270" height="103" fill="black">
<rect fill="white" x="203.717" y="0.407959" width="270" height="103"/>
<path d="M207.869 98C207.101 98 206.717 97.744 206.717 96.464V95.824C206.717 94.672 207.229 94.288 208.253 94.032C212.349 93.264 215.293 90.832 215.293 87.632V15.184C215.293 11.984 212.349 9.55196 208.253 8.78396C207.229 8.52795 206.717 8.14396 206.717 6.99196V6.35196C206.717 5.07196 207.101 4.81596 207.869 4.81596C213.117 4.81596 216.957 5.45596 221.565 5.45596C226.173 5.45596 230.269 4.81596 235.517 4.81596C236.285 4.81596 236.669 5.07196 236.669 6.35196V6.99196C236.669 8.14396 236.285 8.52795 235.645 8.65596C231.293 9.29596 228.093 11.856 228.093 15.184V87.632C228.093 90.96 231.293 93.136 235.005 93.136H239.101C254.845 93.136 260.989 89.68 263.293 76.88C263.421 75.856 264.061 75.344 264.701 75.344H265.725C266.365 75.344 266.877 75.856 266.877 76.496V93.904C266.877 97.104 266.109 98 261.373 98C249.981 97.872 244.221 97.616 235.005 97.616C221.053 97.616 212.221 98 207.869 98Z"/>
<path d="M269.979 98C269.211 98 268.827 97.744 268.827 96.464V95.824C268.827 94.672 269.211 94.288 269.851 94.16C275.227 93.52 278.555 91.472 279.835 87.504L304.923 6.09595C305.179 5.32796 305.691 4.81596 306.587 4.81596H308.123C309.019 4.81596 309.531 5.32796 309.787 6.09595L335.515 87.632C336.795 91.472 340.123 93.52 345.371 94.032C346.011 94.16 346.395 94.544 346.395 95.696V96.336C346.395 97.616 346.011 97.872 345.243 97.872C338.715 97.872 334.235 97.232 328.987 97.232C323.483 97.232 319.643 97.872 311.195 97.872C310.427 97.872 310.043 97.616 310.043 96.336V95.696C310.043 94.544 310.555 94.16 311.579 94.032C318.619 93.136 321.691 90.96 320.539 86.992L314.011 64.08H292.507L286.235 86.224C284.955 90.832 287.387 93.264 294.683 94.16C295.707 94.288 296.219 94.672 296.219 95.824V96.464C296.219 97.744 295.835 98 295.067 98C289.179 98 284.699 97.36 281.115 97.36C278.043 97.36 274.459 98 269.979 98ZM293.915 59.216H312.603L303.259 26.192L293.915 59.216Z"/>
<path d="M377.27 98C373.686 98 370.486 97.744 366.134 97.744C358.07 97.744 352.566 98 349.494 98C348.726 98 348.342 97.744 348.342 96.464V95.824C348.342 94.672 348.854 94.288 349.878 94.032C353.974 93.264 356.918 90.832 356.918 87.632V15.184C356.918 11.984 353.974 9.55196 349.878 8.78396C348.854 8.52795 348.342 8.14396 348.342 6.99196V6.35196C348.342 5.07196 348.726 4.81596 349.494 4.81596C352.566 4.81596 357.686 4.94395 365.238 5.07196C371.254 4.94395 374.838 4.81596 380.342 4.81596C395.958 4.81596 406.966 15.312 406.966 29.008C406.966 37.584 403.254 44.88 392.886 48.72C405.814 52.56 412.214 61.008 412.214 72.784C412.214 87.76 399.926 98 377.27 98ZM369.718 87.632C369.718 90.96 372.918 93.136 376.63 93.136H380.47C391.862 93.136 398.134 86.736 398.134 74.32C398.134 57.04 391.734 52.176 374.582 51.664L369.718 51.536V87.632ZM369.718 46.928C372.918 47.184 375.478 47.312 377.142 47.312C388.79 47.312 392.886 40.912 392.886 30.16C392.886 16.464 386.358 9.67995 378.166 9.67995H376.63C372.918 9.67995 369.718 11.856 369.718 15.184V46.928Z"/>
<path d="M443.371 99.92C433.259 99.92 420.971 96.464 418.411 94.16C417.131 93.008 416.747 91.856 416.747 90.064V69.84C416.747 68.944 417.387 68.304 418.283 68.304H419.179C420.075 68.304 420.715 68.688 420.971 69.584C425.067 86.992 434.155 95.056 445.291 95.056C454.379 95.056 459.627 87.76 459.627 80.08C459.627 57.936 417.771 48.72 417.771 25.296C417.771 12.496 427.371 3.40796 442.859 3.40796C451.435 3.40796 460.139 5.96796 463.467 8.78396C464.747 9.93596 465.131 11.088 465.131 12.88V28.624C465.131 29.52 464.491 30.16 463.595 30.16H462.571C461.675 30.16 461.035 29.776 460.779 28.88C456.427 13.776 448.107 8.27196 440.299 8.27196C434.539 8.27196 429.803 13.392 429.803 20.688C429.803 40.656 470.635 48.208 470.635 75.216C470.635 89.552 462.059 99.92 443.371 99.92Z"/>
</mask>
<path d="M207.869 98C207.101 98 206.717 97.744 206.717 96.464V95.824C206.717 94.672 207.229 94.288 208.253 94.032C212.349 93.264 215.293 90.832 215.293 87.632V15.184C215.293 11.984 212.349 9.55196 208.253 8.78396C207.229 8.52795 206.717 8.14396 206.717 6.99196V6.35196C206.717 5.07196 207.101 4.81596 207.869 4.81596C213.117 4.81596 216.957 5.45596 221.565 5.45596C226.173 5.45596 230.269 4.81596 235.517 4.81596C236.285 4.81596 236.669 5.07196 236.669 6.35196V6.99196C236.669 8.14396 236.285 8.52795 235.645 8.65596C231.293 9.29596 228.093 11.856 228.093 15.184V87.632C228.093 90.96 231.293 93.136 235.005 93.136H239.101C254.845 93.136 260.989 89.68 263.293 76.88C263.421 75.856 264.061 75.344 264.701 75.344H265.725C266.365 75.344 266.877 75.856 266.877 76.496V93.904C266.877 97.104 266.109 98 261.373 98C249.981 97.872 244.221 97.616 235.005 97.616C221.053 97.616 212.221 98 207.869 98Z" fill="#737373"/>
<path d="M269.979 98C269.211 98 268.827 97.744 268.827 96.464V95.824C268.827 94.672 269.211 94.288 269.851 94.16C275.227 93.52 278.555 91.472 279.835 87.504L304.923 6.09595C305.179 5.32796 305.691 4.81596 306.587 4.81596H308.123C309.019 4.81596 309.531 5.32796 309.787 6.09595L335.515 87.632C336.795 91.472 340.123 93.52 345.371 94.032C346.011 94.16 346.395 94.544 346.395 95.696V96.336C346.395 97.616 346.011 97.872 345.243 97.872C338.715 97.872 334.235 97.232 328.987 97.232C323.483 97.232 319.643 97.872 311.195 97.872C310.427 97.872 310.043 97.616 310.043 96.336V95.696C310.043 94.544 310.555 94.16 311.579 94.032C318.619 93.136 321.691 90.96 320.539 86.992L314.011 64.08H292.507L286.235 86.224C284.955 90.832 287.387 93.264 294.683 94.16C295.707 94.288 296.219 94.672 296.219 95.824V96.464C296.219 97.744 295.835 98 295.067 98C289.179 98 284.699 97.36 281.115 97.36C278.043 97.36 274.459 98 269.979 98ZM293.915 59.216H312.603L303.259 26.192L293.915 59.216Z" fill="#737373"/>
<path d="M377.27 98C373.686 98 370.486 97.744 366.134 97.744C358.07 97.744 352.566 98 349.494 98C348.726 98 348.342 97.744 348.342 96.464V95.824C348.342 94.672 348.854 94.288 349.878 94.032C353.974 93.264 356.918 90.832 356.918 87.632V15.184C356.918 11.984 353.974 9.55196 349.878 8.78396C348.854 8.52795 348.342 8.14396 348.342 6.99196V6.35196C348.342 5.07196 348.726 4.81596 349.494 4.81596C352.566 4.81596 357.686 4.94395 365.238 5.07196C371.254 4.94395 374.838 4.81596 380.342 4.81596C395.958 4.81596 406.966 15.312 406.966 29.008C406.966 37.584 403.254 44.88 392.886 48.72C405.814 52.56 412.214 61.008 412.214 72.784C412.214 87.76 399.926 98 377.27 98ZM369.718 87.632C369.718 90.96 372.918 93.136 376.63 93.136H380.47C391.862 93.136 398.134 86.736 398.134 74.32C398.134 57.04 391.734 52.176 374.582 51.664L369.718 51.536V87.632ZM369.718 46.928C372.918 47.184 375.478 47.312 377.142 47.312C388.79 47.312 392.886 40.912 392.886 30.16C392.886 16.464 386.358 9.67995 378.166 9.67995H376.63C372.918 9.67995 369.718 11.856 369.718 15.184V46.928Z" fill="#737373"/>
<path d="M443.371 99.92C433.259 99.92 420.971 96.464 418.411 94.16C417.131 93.008 416.747 91.856 416.747 90.064V69.84C416.747 68.944 417.387 68.304 418.283 68.304H419.179C420.075 68.304 420.715 68.688 420.971 69.584C425.067 86.992 434.155 95.056 445.291 95.056C454.379 95.056 459.627 87.76 459.627 80.08C459.627 57.936 417.771 48.72 417.771 25.296C417.771 12.496 427.371 3.40796 442.859 3.40796C451.435 3.40796 460.139 5.96796 463.467 8.78396C464.747 9.93596 465.131 11.088 465.131 12.88V28.624C465.131 29.52 464.491 30.16 463.595 30.16H462.571C461.675 30.16 461.035 29.776 460.779 28.88C456.427 13.776 448.107 8.27196 440.299 8.27196C434.539 8.27196 429.803 13.392 429.803 20.688C429.803 40.656 470.635 48.208 470.635 75.216C470.635 89.552 462.059 99.92 443.371 99.92Z" fill="#737373"/>
<path d="M207.869 98C207.101 98 206.717 97.744 206.717 96.464V95.824C206.717 94.672 207.229 94.288 208.253 94.032C212.349 93.264 215.293 90.832 215.293 87.632V15.184C215.293 11.984 212.349 9.55196 208.253 8.78396C207.229 8.52795 206.717 8.14396 206.717 6.99196V6.35196C206.717 5.07196 207.101 4.81596 207.869 4.81596C213.117 4.81596 216.957 5.45596 221.565 5.45596C226.173 5.45596 230.269 4.81596 235.517 4.81596C236.285 4.81596 236.669 5.07196 236.669 6.35196V6.99196C236.669 8.14396 236.285 8.52795 235.645 8.65596C231.293 9.29596 228.093 11.856 228.093 15.184V87.632C228.093 90.96 231.293 93.136 235.005 93.136H239.101C254.845 93.136 260.989 89.68 263.293 76.88C263.421 75.856 264.061 75.344 264.701 75.344H265.725C266.365 75.344 266.877 75.856 266.877 76.496V93.904C266.877 97.104 266.109 98 261.373 98C249.981 97.872 244.221 97.616 235.005 97.616C221.053 97.616 212.221 98 207.869 98Z" stroke="#737373" stroke-width="5" mask="url(#path-2-outside-2_1230_1116)"/>
<path d="M269.979 98C269.211 98 268.827 97.744 268.827 96.464V95.824C268.827 94.672 269.211 94.288 269.851 94.16C275.227 93.52 278.555 91.472 279.835 87.504L304.923 6.09595C305.179 5.32796 305.691 4.81596 306.587 4.81596H308.123C309.019 4.81596 309.531 5.32796 309.787 6.09595L335.515 87.632C336.795 91.472 340.123 93.52 345.371 94.032C346.011 94.16 346.395 94.544 346.395 95.696V96.336C346.395 97.616 346.011 97.872 345.243 97.872C338.715 97.872 334.235 97.232 328.987 97.232C323.483 97.232 319.643 97.872 311.195 97.872C310.427 97.872 310.043 97.616 310.043 96.336V95.696C310.043 94.544 310.555 94.16 311.579 94.032C318.619 93.136 321.691 90.96 320.539 86.992L314.011 64.08H292.507L286.235 86.224C284.955 90.832 287.387 93.264 294.683 94.16C295.707 94.288 296.219 94.672 296.219 95.824V96.464C296.219 97.744 295.835 98 295.067 98C289.179 98 284.699 97.36 281.115 97.36C278.043 97.36 274.459 98 269.979 98ZM293.915 59.216H312.603L303.259 26.192L293.915 59.216Z" stroke="#737373" stroke-width="5" mask="url(#path-2-outside-2_1230_1116)"/>
<path d="M377.27 98C373.686 98 370.486 97.744 366.134 97.744C358.07 97.744 352.566 98 349.494 98C348.726 98 348.342 97.744 348.342 96.464V95.824C348.342 94.672 348.854 94.288 349.878 94.032C353.974 93.264 356.918 90.832 356.918 87.632V15.184C356.918 11.984 353.974 9.55196 349.878 8.78396C348.854 8.52795 348.342 8.14396 348.342 6.99196V6.35196C348.342 5.07196 348.726 4.81596 349.494 4.81596C352.566 4.81596 357.686 4.94395 365.238 5.07196C371.254 4.94395 374.838 4.81596 380.342 4.81596C395.958 4.81596 406.966 15.312 406.966 29.008C406.966 37.584 403.254 44.88 392.886 48.72C405.814 52.56 412.214 61.008 412.214 72.784C412.214 87.76 399.926 98 377.27 98ZM369.718 87.632C369.718 90.96 372.918 93.136 376.63 93.136H380.47C391.862 93.136 398.134 86.736 398.134 74.32C398.134 57.04 391.734 52.176 374.582 51.664L369.718 51.536V87.632ZM369.718 46.928C372.918 47.184 375.478 47.312 377.142 47.312C388.79 47.312 392.886 40.912 392.886 30.16C392.886 16.464 386.358 9.67995 378.166 9.67995H376.63C372.918 9.67995 369.718 11.856 369.718 15.184V46.928Z" stroke="#737373" stroke-width="5" mask="url(#path-2-outside-2_1230_1116)"/>
<path d="M443.371 99.92C433.259 99.92 420.971 96.464 418.411 94.16C417.131 93.008 416.747 91.856 416.747 90.064V69.84C416.747 68.944 417.387 68.304 418.283 68.304H419.179C420.075 68.304 420.715 68.688 420.971 69.584C425.067 86.992 434.155 95.056 445.291 95.056C454.379 95.056 459.627 87.76 459.627 80.08C459.627 57.936 417.771 48.72 417.771 25.296C417.771 12.496 427.371 3.40796 442.859 3.40796C451.435 3.40796 460.139 5.96796 463.467 8.78396C464.747 9.93596 465.131 11.088 465.131 12.88V28.624C465.131 29.52 464.491 30.16 463.595 30.16H462.571C461.675 30.16 461.035 29.776 460.779 28.88C456.427 13.776 448.107 8.27196 440.299 8.27196C434.539 8.27196 429.803 13.392 429.803 20.688C429.803 40.656 470.635 48.208 470.635 75.216C470.635 89.552 462.059 99.92 443.371 99.92Z" stroke="#737373" stroke-width="5" mask="url(#path-2-outside-2_1230_1116)"/>
</svg>
